<?xml version="1.0" encoding="UTF-8"?>
<!DOCTYPE svg PUBLIC "-//W3C//DTD SVG 1.1//EN" "http://www.w3.org/Graphics/SVG/1.1/DTD/svg11.dtd">
<!-- Creator: CorelDRAW X7 -->
<svg xmlns="http://www.w3.org/2000/svg" xml:space="preserve" width="121.92mm" height="121.92mm" version="1.1" style="shape-rendering:geometricPrecision; text-rendering:geometricPrecision; image-rendering:optimizeQuality; fill-rule:evenodd; clip-rule:evenodd"
viewBox="0 0 12192 12192"
 xmlns:xlink="http://www.w3.org/1999/xlink">
 <defs>
  <style type="text/css">
   <![CDATA[
    .fil3 {fill:#005693}
    .fil5 {fill:#020101}
    .fil4 {fill:#02A271}
    .fil58 {fill:#0E6B4E}
    .fil68 {fill:#150B05}
    .fil56 {fill:#155154}
    .fil57 {fill:#1A1406}
    .fil52 {fill:#1A3961}
    .fil7 {fill:#1F1A17}
    .fil6 {fill:#1F1A18}
    .fil33 {fill:#201A18}
    .fil47 {fill:#251906}
    .fil51 {fill:#282565}
    .fil39 {fill:#2A2505}
    .fil38 {fill:#2A2726}
    .fil76 {fill:#2E709C}
    .fil37 {fill:#342A07}
    .fil55 {fill:#393608}
    .fil62 {fill:#453908}
    .fil60 {fill:#484609}
    .fil43 {fill:#534C12}
    .fil9 {fill:#574832}
    .fil59 {fill:#57570A}
    .fil65 {fill:#651D19}
    .fil16 {fill:#665A49}
    .fil41 {fill:#6E5518}
    .fil74 {fill:#702F0A}
    .fil45 {fill:#736C13}
    .fil48 {fill:#78880F}
    .fil50 {fill:#797776}
    .fil17 {fill:#887459}
    .fil28 {fill:#8F7216}
    .fil67 {fill:#8F912D}
    .fil73 {fill:#902D10}
    .fil42 {fill:#90500D}
    .fil53 {fill:#909110}
    .fil21 {fill:#928C6F}
    .fil44 {fill:#98A80F}
    .fil35 {fill:#A7764E}
    .fil63 {fill:#AC510A}
    .fil61 {fill:#ADB20F}
    .fil66 {fill:#AF7011}
    .fil40 {fill:#B08E11}
    .fil19 {fill:#B1B08C}
    .fil64 {fill:#B7D25B}
    .fil49 {fill:#B9C60A}
    .fil25 {fill:#BCD608}
    .fil18 {fill:#C5DD28}
    .fil23 {fill:#C6980E}
    .fil69 {fill:#C6D414}
    .fil13 {fill:#C7D602}
    .fil27 {fill:#CBAF5A}
    .fil14 {fill:#CFD4AA}
    .fil34 {fill:#D0E450}
    .fil71 {fill:#D1A62E}
    .fil24 {fill:#D1B172}
    .fil31 {fill:#D2AC0B}
    .fil72 {fill:#D56E12}
    .fil22 {fill:#D7D401}
    .fil15 {fill:#D8E970}
    .fil2 {fill:#D9251D}
    .fil36 {fill:#DAB184}
    .fil30 {fill:#DEEB8B}
    .fil75 {fill:#EBEAEA}
    .fil11 {fill:#ECE86F}
    .fil32 {fill:#EDF190}
    .fil20 {fill:#EFCE03}
    .fil8 {fill:#EFF4AF}
    .fil29 {fill:#F2F7CA}
    .fil12 {fill:#FAF678}
    .fil70 {fill:#FAFAF9}
    .fil54 {fill:#FBFDFD}
    .fil46 {fill:#FDFDFD}
    .fil1 {fill:#FDFEFE}
    .fil10 {fill:#FEF401}
    .fil26 {fill:#FEFA97}
    .fil0 {fill:white}
   ]]>
  </style>
 </defs>
 <g id="Capa_x0020_1">
  <metadata id="CorelCorpID_0Corel-Layer"/>
  <g id="_1644100135296">
   <path class="fil0" d="M6185 10430l-171 -1c6,-23 0,-12 12,-38 13,-29 -1,-1 10,-21 10,-15 17,-22 23,-30l167 -1 -41 91zm-824 -52c-120,293 -546,117 -413,-215 116,-288 546,-113 413,215zm1537 -61c-36,-352 419,-379 453,-60 37,351 -420,375 -453,60zm1402 -183c-102,-338 357,-458 439,-126 80,322 -345,436 -439,126zm-1411 277l-34 129 -62 26c-59,14 -150,13 -205,-18 -65,-38 -116,-112 -128,-205 -39,-313 157,-250 357,-283l39 194c-46,-29 -30,-28 -68,-73 -85,-104 -204,-27 -192,134 7,84 48,160 107,182 117,44 122,-59 186,-86zm-1493 128l4 -197c35,42 24,87 67,126 47,42 114,42 157,6 62,-155 -200,-78 -208,-264 -8,-213 257,-163 329,-121l-18 111 -62 -70c-47,-29 -108,-30 -107,32 2,66 158,82 197,139 65,93 -1,205 -68,237 -118,55 -179,-8 -291,1zm-838 -567c46,-34 25,-19 172,2 65,10 133,12 194,33 2,52 11,120 -5,153 -43,-64 -20,-107 -115,-110 -19,118 -70,327 -19,425l-201 -26c22,-70 29,18 58,-194 10,-75 24,-154 31,-227 -94,-4 -103,29 -143,84l28 -140zm-714 71c-90,326 -528,215 -441,-117 79,-305 535,-224 441,117zm3940 -67c108,-23 254,-74 352,-19 81,46 158,152 142,283 -25,204 -359,208 -610,234 32,-93 -42,-195 -104,-216 -17,34 -9,72 0,119 13,67 25,65 46,108l-189 24c29,-81 -9,-350 -43,-448 -14,-40 -27,-2 -5,-33 69,-30 292,-51 360,-32 38,106 12,120 -46,181 29,55 140,231 193,263 21,-86 -13,-173 -31,-256 -43,-202 -20,-91 -65,-208zm-3226 -4l-39 2c-21,109 -107,362 -63,445l-187 -28c63,-132 29,-18 75,-223 20,-93 48,-175 22,-256l152 31c33,15 16,2 40,29zm2480 4c61,-122 82,-146 141,-141 25,101 -114,139 -141,141zm-3121 -159c370,76 126,17 279,218 17,-89 26,-77 2,-158l109 19c-15,43 -23,19 -44,85 -28,94 -74,311 -53,392l-99 -34c38,-62 56,-36 -16,-186 -36,-74 -81,-149 -103,-220 -34,52 -39,132 -53,193 -24,109 -37,104 2,187l-115 -16c9,-33 21,-3 70,-229 16,-74 59,-187 21,-251zm4788 -53c82,-24 295,-116 365,-73 58,63 12,123 -26,165 75,20 110,32 144,84 30,48 37,117 1,162 -39,48 -261,113 -348,129 27,-87 -12,-148 -39,-240 -29,-98 -51,-161 -97,-227zm-4500 3c-120,3 -41,-48 -168,-8 59,-160 67,-24 213,-69 -21,57 -15,42 -45,77zm4988 -160l164 -62c51,106 212,337 306,392 -38,33 -145,71 -198,82 36,-112 -52,-142 -168,-126 0,84 -1,112 30,150l31 30 -132 47c27,-93 28,-423 -33,-513zm-6017 142c37,-40 73,-69 101,-131l178 62c-78,84 -50,50 -106,207 -33,93 -80,161 -55,250l-189 -64c45,8 142,-279 150,-327 -13,18 -180,181 -194,190l-17 -270c-45,96 -125,241 -87,347l-116 -36c21,-44 25,-4 57,-84 15,-36 31,-86 44,-124 35,-98 65,-138 65,-252 271,92 142,13 169,232zm-1861 -1867l-3 -209c153,50 322,35 506,34 106,0 84,-3 154,-34l1 209c-140,-47 -173,-33 -323,-33 -60,0 -122,-2 -183,-1 -110,1 -87,20 -152,34zm-3 -584l1 -125c154,51 505,51 657,0l4 135c-120,-52 -55,-89 -276,47 -81,49 -193,108 -248,162 243,3 353,25 523,-43l0 136c-60,-25 -49,-33 -139,-34 -61,-1 -123,0 -184,0 -153,0 -194,-13 -336,34l-3 -242c24,-11 105,12 217,-102 -127,-1 -117,-2 -216,32zm178 -339c80,-127 88,-297 326,-246 73,15 137,70 159,133 37,108 -29,197 3,257l-259 16c46,-41 103,-35 149,-81 112,-112 -52,-314 -156,-80 -35,79 -62,133 -155,150 -344,61 -242,-299 -242,-343l199 -12c-34,49 -91,52 -121,101 -52,88 12,112 97,105zm-92 -556c229,2 413,26 576,-42l-2 237c-101,-69 -55,-53 -261,-52 -106,0 -213,-1 -320,0 13,104 62,94 136,138 -3,1 -8,-1 -10,2l-20 4c-2,0 -7,1 -11,1l-180 -28 6 -383 221 -29c-64,71 -145,32 -135,152zm-83 -178l-3 -208c150,48 325,35 506,34 110,-1 79,-10 153,-34l2 208c-140,-46 -173,-33 -323,-33 -60,0 -122,-1 -183,-1 -114,1 -94,23 -152,34zm77 -529l457 0c105,-6 59,-20 120,-43l5 229c-171,-70 -336,-45 -577,-43 -2,50 4,66 34,90 23,19 31,17 50,27 4,2 8,3 11,5l-183 0 2 -372c33,-24 177,-51 216,-30 -76,43 -124,38 -135,137zm-80 -451l0 -164c172,87 98,46 400,40 158,-3 263,26 274,180 27,364 -493,119 -635,216l-25 23c-2,2 -5,7 -9,9l-6 -241c165,72 126,50 355,54 145,3 257,21 230,-144 -96,-56 -314,-42 -444,-28 -82,8 -87,29 -140,55zm456 -650l193 41 27 163c-4,169 -162,245 -323,256 -295,21 -416,-103 -356,-398l253 -36 -46 43c-41,26 -132,45 -122,132 22,201 637,110 485,-119 -28,-42 -68,-39 -111,-82zm-454 -41l-2 -209c157,52 505,51 659,0l2 209c-149,-49 -325,-36 -506,-34 -110,1 -89,21 -153,34zm-10 -454c-81,-355 609,-397 677,-102 80,351 -610,394 -677,102zm-270 -137c44,-43 74,-35 114,16 29,37 65,82 72,132l-156 -94c-44,-39 -22,-41 -30,-54zm285 -523l-5 -125c142,52 514,52 653,0l8 135c-116,-53 -73,-84 -284,51 -83,53 -172,99 -241,157l414 1c84,-8 49,-19 106,-43l4 135c-126,-46 -168,-33 -324,-33 -61,0 -122,-1 -183,0 -93,0 -91,10 -155,33 0,-394 -18,-197 115,-269 23,-12 82,-53 99,-75 -128,0 -101,-7 -207,33zm2270 -1536l12 93c119,9 115,-29 147,-86l110 180c-87,-31 -80,-78 -216,-34 -1,3 -2,5 -3,10 -1,73 43,192 65,208 48,36 190,-15 249,-129 45,-86 15,-62 59,-86l-15 220c-80,26 -473,132 -532,128 52,-77 27,-80 -30,-260 -15,-45 -26,-90 -43,-140 -28,-84 -28,-52 -80,-97l498 -137 105 146c-74,-4 -191,-120 -326,-16zm5610 428c-67,10 -266,-40 -338,-62 33,-33 112,-38 41,-130 -36,-47 -92,-81 -168,-96 -130,129 -87,135 -51,182l-220 -36c15,-19 3,-9 28,-23 104,-59 85,-58 181,-181 81,-104 129,-144 161,-238 1,-4 3,-9 4,-12 1,-3 2,-9 4,-12l269 57c-25,124 -45,-37 6,281 20,129 10,181 83,270zm-5156 -620c142,-13 322,-66 461,-53 148,13 265,97 298,216 84,308 -412,334 -663,362 56,-99 33,-96 -2,-276 -17,-92 -17,-193 -94,-249zm3952 -119c86,-12 220,23 311,34 -13,49 -61,13 -27,160 13,59 27,140 50,193 41,-54 60,-92 97,-150 82,-128 74,-97 29,-179l218 30c-25,35 -54,33 -103,96 -31,42 -55,82 -85,127 -28,42 -57,86 -86,127 -46,68 -65,63 -37,141l-258 -35c54,-91 41,-36 -15,-280 -32,-139 -23,-156 -94,-264zm-360 -45l300 27c-69,93 -44,-29 -78,261 -37,317 -9,182 17,263l-299 -23c51,-85 39,58 74,-245 6,-54 28,-173 18,-221l-19 -43c-2,-4 -10,-15 -13,-19zm-664 -53l558 34 28 178c-71,-15 -43,-129 -206,-115 -21,76 -17,164 -24,243 -10,122 -35,139 48,209 -87,19 -239,-6 -334,-11 46,-59 42,1 66,-79l31 -384c-199,-3 -147,78 -229,97l62 -172zm-773 536c-94,-5 -579,106 -623,-245 -38,-302 322,-305 569,-298l58 201c-90,2 -74,-133 -250,-120 -117,9 -178,90 -155,220 27,153 277,300 440,64 22,25 21,-28 10,47l-49 131zm-761 -445c2,215 203,490 -259,515 -292,15 -250,-132 -268,-374 -10,-127 -9,-81 -76,-131l336 -39c-56,80 -87,27 -41,354 26,185 222,111 251,63 36,-72 8,-161 -8,-244 -24,-121 -13,-120 -104,-169 3,-2 9,-9 10,-5l85 -19c46,-4 93,-8 139,-11l-65 60zm1040 -93l293 -2c-7,135 0,98 74,273 94,223 45,139 147,259l-317 -29c25,-35 14,15 20,-40 9,-84 -134,-127 -225,-129 -18,22 -43,71 -50,98 -10,37 -14,21 1,52l42 48 -228 0c91,-113 15,56 166,-257 33,-67 100,-188 90,-240l-6 -17c-1,-3 -5,-11 -7,-16zm5095 6662c-31,-108 -10,-343 -10,-468l-472 0c-46,29 -25,-7 -15,45 38,44 76,45 89,125 11,70 -15,127 -12,206l-200 12c19,-27 2,-9 26,-28 35,-27 65,-30 90,-64 35,-47 33,-124 -52,-117 -95,7 -82,168 -186,230 -97,57 -238,18 -299,-48 -109,-117 -1,-233 -43,-325l70 -8 30 -16c32,-11 0,-6 47,-13 24,-4 59,1 80,-1 -99,6 -15,4 -50,-24l-176 -43 -2 -375 0 -9 6 -215c86,25 139,32 257,-36 60,-35 38,-16 54,-61 -236,-7 -156,-11 -308,32 -4,-38 -6,-81 -6,-119 1,-76 -12,-69 32,-94 48,2 134,4 204,4 16,-28 14,6 0,-45 -73,-19 -158,-44 -235,-40 -43,-50 -24,-322 -24,-417 70,9 111,15 198,15 33,0 75,3 106,2 65,-1 76,-7 107,-32 -80,-61 -130,1 -213,-46 -111,-9 -176,-55 -185,-167 -6,-65 5,-103 40,-145 43,-51 49,-39 113,-42l43 -11c-4,-3 -9,-13 -11,-9l-46 -34c-97,-41 -98,-42 -138,-139 -30,-38 -8,28 -28,-61 -3,-13 -1,-63 -1,-76l-623 0 -2 1871c-16,72 -3,29 -26,60 -149,1298 -1560,1693 -2606,2049 -420,143 -742,279 -1091,476l-435 -220c-735,-308 -1786,-580 -2358,-956 -259,-171 -513,-396 -676,-647 -222,-344 -242,-608 -242,-1082l0 -3977c1043,74 2064,15 3000,-429 202,-96 371,-205 541,-326 205,-147 137,-160 241,-68 134,118 448,305 606,382 834,407 2005,551 2926,447 28,-29 52,-29 102,-23 217,26 1520,11 1753,11l0 -1383 -37 -13c-84,-27 -669,16 -815,17 -1463,7 -3194,-279 -4372,-1166 -67,-50 -185,-149 -255,-178 -96,143 -830,559 -1041,657 -1137,529 -2340,698 -3604,686 -248,-2 -608,-44 -831,-29 -23,1022 -1,2071 -1,3096 0,1034 1,2068 0,3101 0,904 391,1510 1074,2023 635,476 1332,735 2100,1001 754,261 1585,509 2218,883 157,92 103,34 497,-157 1560,-756 3607,-973 4640,-2337 189,-249 486,-806 437,-1112z"/>
   <path class="fil1" d="M4835 4371c201,-58 264,233 93,286 -215,66 -303,-225 -93,-286zm-706 289c112,-142 73,-276 136,-290 112,-26 96,57 100,71l85 219 -142 0c35,-73 -1,-102 -87,-105 -15,65 -28,52 1,105l-93 0zm-902 -198c-35,-31 -26,-56 -94,-51 -2,97 -14,185 23,249l-138 0c38,-63 26,-153 24,-249 -88,-4 -44,14 -94,49l25 -90 234 1 20 91zm1350 2c0,-66 5,-50 -22,-92l129 5c-64,112 79,380 -246,259l51 -62c26,68 19,51 65,54 36,-47 23,-69 23,-164zm-702 0c0,-58 3,-50 -18,-92 139,-6 117,-10 258,11 -2,71 -5,54 -44,97 36,29 97,59 58,132 -41,70 -146,48 -278,48 34,-52 24,-112 24,-196zm-609 0c0,-58 2,-51 -18,-92 172,-7 352,-29 214,123l73 134c19,-14 7,3 27,-32 1,-1 13,-31 14,-31 56,-147 33,-185 81,-196 113,-26 98,62 101,70 9,32 14,49 25,81 18,54 37,102 61,139l-126 0c-18,-28 32,-85 -91,-107 -33,47 -39,59 -13,107l-170 0c-58,-9 27,-96 -89,-134 0,65 -8,79 18,134l-126 0c26,-54 19,-133 19,-196zm-792 1042c99,63 167,120 258,187 166,121 1768,1319 1822,1335l1264 -4c23,-72 17,-87 83,-106l-2 -194 6 -59 0 -220 -22 -104c-33,96 -30,22 -30,155 -1,52 1,106 -19,173 -30,12 -48,25 -57,-31 -32,-213 24,-135 48,-245 17,-76 12,-56 53,-111l22 -78c5,-134 6,-224 -7,-354l-26 -15c-63,1 -60,8 -75,45 36,68 12,122 -4,184l-40 -22c-1,-3 -5,-2 -8,-3 28,34 38,48 16,91 -22,22 27,20 -43,17l11 68c-103,48 57,-22 -36,149l19 61c-16,60 2,55 3,137l-14 75c-116,19 -124,7 -185,-67 10,-72 17,-75 79,-109l6 -11 -100 59 -1 -76c-43,-23 -14,1 -27,-35 -54,-243 14,-195 139,-274l-129 34c24,-98 53,-95 150,-105l-56 -3 -65 17c20,-84 17,-72 107,-89l1 -26 -63 7c50,-128 132,-91 255,-131 28,-39 39,-27 78,-56 -23,-78 -29,-118 -96,-130 -99,54 -127,60 -243,89 -197,48 -37,64 -158,94 -41,10 4,-1 -30,4 -2,1 -9,5 -11,2 -1,-3 -7,0 -10,1 34,27 8,-9 17,32 10,46 -112,336 -207,347 -95,-80 -76,-425 256,-553l172 -67c-28,-33 -20,-24 -89,-36 -35,-6 -69,-12 -105,-18 -88,-14 -127,-18 -168,-78 -63,-14 -71,-26 -97,-74 -7,-9 -34,34 -2,-18 14,-21 45,-23 58,-27 126,-34 180,-22 318,11 125,30 278,101 321,179l40 36c1,-3 2,-8 3,-11l-9 -72c-78,-35 -81,-99 -92,-192l-170 -51c-74,-33 -108,-61 -153,-114l-27 -38 -78 -189c-24,-90 -26,-162 84,-159l18 47 -4 130c38,72 82,114 159,161 41,25 63,27 97,55 30,25 43,44 77,71 29,54 26,76 75,103 15,-22 30,-40 0,-97 -46,-87 -400,-366 -303,-472 26,-43 23,-55 100,-41 33,6 70,25 95,43 62,45 96,84 121,150 51,38 93,160 106,227 23,-43 12,-306 19,-417l13 -32c3,-35 7,-68 17,-97 19,-55 10,-38 46,-61 50,47 29,149 29,237l-3 266c53,-35 89,-76 180,-90 57,-6 100,-12 139,17l64 12c75,-14 205,-53 200,74 -2,44 -34,82 -57,98 -81,60 -95,4 -96,3 -49,-10 -76,-47 -77,-103 -43,-17 -4,-4 -46,-13l-51 35c-25,59 -57,115 -75,195l-39 146c80,-84 112,-130 250,-183 108,-42 251,-79 367,-38 145,80 -79,199 -172,232 -277,100 -221,123 -313,175 13,19 1,19 22,31l72 14c47,-21 -6,40 92,-28l11 24 37 -20c21,-13 -9,-2 27,-15l0 57c9,82 24,8 50,75 29,-38 8,-30 58,-43l-10 124 26 96c-5,48 -19,97 -34,142 -6,17 -14,42 -27,63 -31,51 -12,23 -40,34l-24 177 56 -1 44 -11c-28,72 -10,75 -70,113 2,97 14,108 -30,186l-78 -5c-18,-5 -7,6 -24,-13 -38,-43 -21,-115 30,-157 24,-102 72,-170 3,-289 -27,-14 -24,-1 -40,-48 -55,-25 -36,-6 -50,-71 -64,-44 -45,-74 -30,-137 11,-46 -18,-92 -16,-155 73,-2 21,39 50,10 -14,-71 -63,-100 -156,-88 -32,39 -10,16 -44,30 -9,39 9,6 -26,41 -2,1 -28,22 -36,26 -22,15 -41,25 -73,37 -96,17 -72,96 -81,197 4,3 9,6 11,7l60 39c40,33 30,14 38,65 50,47 5,48 73,97l-12 24c0,1 0,6 0,8 0,1 2,6 2,8 2,9 18,34 25,61 33,31 2,-14 13,20l3 29c17,58 6,23 32,55l-23 31 2 98c-40,-36 -20,-35 -62,-55 -68,30 -3,70 -50,30 -23,-41 -23,-46 3,-94l-38 -23 60 -31c-8,-32 -22,2 -31,-31 -2,-7 -9,-6 -13,-10 57,-7 28,10 51,-24 -28,16 -30,11 -49,0 23,-35 34,-34 40,-49l-43 -39c-7,53 3,50 -22,83 -45,-116 63,-75 32,-192l-69 -33 -23 81 14 688 31 210 3639 -46 -7 -148c-152,-84 -4076,-3011 -4517,-3333 -94,-69 -592,-422 -631,-477 -145,14 -325,64 -480,87 -563,85 -1057,77 -1625,48l6 2353z"/>
   <path class="fil2" d="M8626 5007c-59,83 -126,176 -191,249 -23,44 -42,59 -69,108 40,-27 79,-75 115,-119l281 -327c44,-50 13,-49 71,-38l-495 556c-37,41 -112,165 -187,159 -12,-77 94,-206 146,-290l48 -75c22,-28 9,-12 24,-27 17,-47 135,-234 169,-264 14,-39 106,-200 157,-236 18,60 32,75 86,97 -2,2 -5,6 -6,7l-149 200zm185 -361c4,12 8,30 13,48 -31,30 -31,44 -75,58 -55,-58 -21,-77 16,-125 4,2 29,8 46,19zm109 -258c6,-48 28,-78 57,-118 42,48 51,64 101,107 -26,46 -32,51 -70,91 -51,-26 -58,-40 -88,-80zm-41 78c20,33 34,32 62,74 -18,40 -58,89 -86,121l-44 -15c-29,-53 -112,-96 -120,-154 -7,-48 49,-162 76,-193 0,0 -4,-31 75,-5 117,40 17,48 79,135 12,17 53,49 73,64 102,77 86,53 183,31 2,4 164,219 -51,111l-247 -169zm-1407 -458c125,-74 752,-268 912,-280 351,-26 714,192 675,486 6,-129 -149,-246 -233,-297 -268,-162 -632,-82 -921,-7 -111,29 -324,90 -433,98zm-1350 -447c-22,213 60,311 223,374 162,63 357,55 531,24 559,-102 1264,-598 1857,-436 271,74 539,346 386,693 3,-107 13,-163 -36,-253 -104,-191 -311,-308 -546,-324 -640,-44 -1237,456 -1870,453 -554,-2 -669,-391 -545,-531zm3069 781c77,-48 117,-42 191,-111 230,-215 53,-454 -25,-635 244,149 433,777 -166,746zm-15 -59c50,-108 119,-153 92,-335 -59,-392 -597,-569 -724,-537 668,-62 1154,559 632,872zm-3145 -1232l246 -2 12 86 -87 -47c-7,78 -17,205 21,251l-138 0c34,-54 31,-172 18,-253 -56,10 -58,26 -88,57l16 -92zm581 284c31,-50 31,-230 -1,-280 148,-19 301,-2 308,150 7,155 -165,152 -307,130zm-65 -22c-44,23 -182,72 -219,-14 -34,-78 28,-166 -27,-247l140 -1c-26,39 -83,285 40,256 73,-17 51,-204 5,-257l99 7c-51,45 -16,169 -38,256zm-805 -171c0,-42 -6,-66 -18,-91 144,-2 108,-11 259,14 3,61 -15,68 -45,107 24,49 62,123 89,167l-105 2c-57,-12 23,-86 -88,-136 -3,55 0,99 16,135l-126 -1c26,-53 18,-125 18,-197zm-171 0c0,-44 -7,-64 -20,-91l128 1c-29,57 -29,231 0,287l-126 1c25,-58 18,-125 18,-198zm-236 192c22,-55 -56,-232 -85,-283l134 5c-24,43 8,129 34,173 27,-55 60,-123 33,-178l96 1c-31,37 -124,220 -103,286l-109 -4zm-762 -316c39,55 537,408 631,477 441,322 4365,3249 4517,3333l7 -3675c-1530,77 -2637,-107 -3624,-861 -156,67 -385,335 -1095,591 -93,33 -378,103 -436,135z"/>
   <path class="fil3" d="M3208 7768c-145,1 -262,-1 -266,-157 -3,-148 122,-149 253,-134l20 106c-65,-40 -18,-82 -136,-64 -110,108 18,310 151,159l-22 90zm1097 -9c-129,31 -246,1 -264,-121 -25,-168 111,-169 251,-164l19 110 -55 -56c-89,-61 -163,66 -99,160 56,83 120,37 170,-6l-22 77zm72 -194c0,-56 2,-50 -18,-88l127 4c-38,42 -19,205 -8,266 45,-8 29,10 56,-49 21,-46 70,-181 57,-218l129 -4c-15,63 56,245 89,287l-58 3c-112,3 -53,0 -65,-19 -13,-23 16,-73 -102,-90 -38,129 65,110 -224,105 28,-52 17,-111 17,-197zm-626 0c0,-39 -7,-64 -19,-89l138 0 59 91c4,-5 41,4 0,-91l74 2c-31,54 -31,231 -1,285l-76 1c40,-70 14,-68 -41,-122 -41,-41 -40,-65 -97,-96 0,91 -12,162 22,219l-77 -1c27,-56 18,-118 18,-199zm-299 0c0,-53 2,-52 -18,-87l225 -6 -5 69c-59,-45 -98,-60 -112,9 75,64 75,-79 87,81 -29,-18 -36,-31 -87,-26l6 128c98,4 106,-33 152,-77l-29 111 -236 -7c27,-48 17,-121 17,-195zm-171 0c0,-42 -5,-62 -18,-89l119 -1c-11,85 -26,212 5,290l-123 -2c27,-55 17,-112 17,-198zm930 426l20 -12c2,98 -5,15 26,51l3 -70 148 14c183,-15 273,-106 451,-99l66 36c39,12 27,0 45,30 7,-4 21,-14 23,-15 25,-13 -1,-1 36,-18 34,-35 38,-31 99,-38 154,14 232,95 412,105l119 -21c32,67 142,515 135,587 19,-26 31,7 -3,-131 -12,-52 -21,-95 -33,-150 -16,-71 -60,-228 -58,-283l60 -11 299 1038c-223,-6 -876,-42 -1052,-9l-529 -3c-183,2 -366,3 -549,8 82,74 758,293 925,347 311,100 646,220 924,354 496,238 133,206 839,-88 156,-65 305,-119 463,-175l408 -139c20,-8 15,-5 33,-15 41,-22 9,-2 32,-21 -58,-63 -186,-142 -268,-202 -48,-36 -243,-178 -258,-204 -62,-20 -142,-93 -188,-133 -57,-24 -83,-54 -130,-89l-162 -121c-47,-25 -124,-75 -148,-112 -54,-23 -247,-158 -273,-208 -48,-13 -88,-42 -118,-86 -52,-17 -116,-59 -145,-111l-223 -158 -207 -150c-44,-24 -196,-133 -221,-168l-290 -215c-47,-20 -46,-25 -84,-58 -58,-34 -121,-78 -161,-129 -29,-9 -37,-15 -66,-36 -33,-23 -36,-28 -57,-55 -54,-16 -1656,-1214 -1822,-1335 -91,-67 -159,-124 -258,-187 -16,139 -6,1008 -6,1223 0,391 -39,794 106,1128 214,492 753,920 1309,1131 40,-74 253,-869 277,-997l51 0z"/>
   <path class="fil1" d="M10999 5287c-214,0 -355,-23 -507,34l1 -218c93,39 40,42 172,42l315 -5 -341 -127 334 -122 -308 -3c-159,0 -114,21 -171,44l-2 -135c75,30 50,33 158,33 215,0 341,22 505,-33l-7 224c-73,-18 -137,5 -209,36 58,43 139,65 213,49l2 215c-52,-17 -79,-34 -155,-34zm-20 -1020c-87,115 -83,305 -333,246 -254,-60 -128,-321 -157,-395l236 10c-40,17 -94,24 -132,67 -53,57 -35,111 -10,166 232,52 113,-216 342,-244 324,-39 224,294 230,344l-201 11c17,-23 4,-8 26,-25 39,-30 126,-44 99,-173l-100 -7zm-333 -621c149,39 395,120 507,92l0 209c-141,-32 -531,86 -661,145l1 -235c47,17 211,108 249,-127 -231,-48 -140,-50 -248,1l-2 -156c58,26 70,49 154,71zm-154 -434c77,29 50,34 158,34 201,0 345,20 504,-34l0 212c-173,-57 -223,-37 -444,-37 -299,0 -120,155 44,209 -47,26 -141,-23 -262,-23l0 -361zm-785 -134l97 -6 -3 4357c23,-31 10,12 26,-60l2 -1871 623 0c0,13 -2,63 1,76 20,89 -2,23 28,61 -9,-215 50,-241 260,-238 76,1 152,5 228,7 148,4 87,-2 184,-41l1 230c-62,-26 -56,-45 -154,-50 -290,-15 -467,-45 -429,143 100,50 174,38 307,33 268,-11 159,-13 276,-62l0 163c-67,-25 -26,-40 -109,-50 -61,-7 -267,18 -426,4l46 34c2,-4 7,6 11,9l-43 11c26,24 0,6 40,26l93 39 -70 10c-47,2 -167,15 -135,97 59,65 207,40 301,40 229,0 136,18 292,-44l0 219c-156,-52 -288,-32 -489,-33 83,47 133,-15 213,46 -31,25 -42,31 -107,32 -31,1 -73,-2 -106,-2 -87,0 -128,-6 -198,-15 0,95 -19,367 24,417l2 -387c115,50 192,34 339,34 175,0 184,17 320,-34l10 359c-64,10 -168,46 -218,24 57,-33 116,-50 137,-120 31,-107 -61,-90 -141,-85 3,112 5,67 72,115l-250 22c87,-52 104,-5 109,-140 -54,0 -107,0 -161,0 -19,0 -60,-1 -76,2 -134,22 -61,137 -13,172 102,74 174,47 105,78 14,51 16,17 0,45 -70,0 -156,-2 -204,-4 40,68 338,40 478,39 105,-1 84,-7 152,-34 4,112 11,303 -14,398 -132,54 -184,7 -260,-62 -112,42 -283,117 -391,152l0 9c148,59 351,38 513,36 94,0 91,-11 154,-34l3 359c-60,11 -160,45 -212,24 49,-31 107,-47 132,-108 47,-115 -52,-102 -137,-97 3,112 7,67 72,113l-250 30c72,-50 118,-23 105,-142 -49,-6 -254,-22 -293,23 -82,130 127,162 180,225l-89 -11c35,28 -49,30 50,24 -21,2 -56,-3 -80,1 -47,7 -15,2 -47,13l-30 16 191 -6 -84 40c-107,43 -118,97 -93,200 277,132 47,-305 503,-217 -10,-52 -31,-16 15,-45l472 0c0,125 -21,360 10,468 29,-49 32,-5921 17,-6500 -13,0 -16,-2 -28,1 -32,8 -25,8 -36,14l37 13 0 1383c-233,0 -1536,15 -1753,-11 -50,-6 -74,-6 -102,23z"/>
   <path class="fil4" d="M518 1567c112,-21 676,28 844,30 289,4 580,-1 867,-18 1343,-82 2590,-405 3662,-1190 169,-124 94,-74 172,-155 29,-30 3,9 69,-27 9,86 101,127 217,213 89,65 165,114 262,178 163,109 367,221 556,310 1152,543 2384,706 3665,689l846 -33c19,1971 1,3991 1,5971 0,744 -8,1082 -360,1627 -1021,1580 -3396,1779 -4899,2580 -97,51 -186,92 -272,156 -26,19 -4,22 -45,24 -56,3 -29,-7 -39,-13 -1499,-907 -3550,-1050 -4717,-2201 -233,-230 -267,-253 -464,-539 -349,-507 -365,-914 -365,-1619l0 -5983zm1284 -67l-1383 -45 0 6460c0,681 206,1087 571,1557 103,132 198,215 307,316 29,28 46,50 76,77 32,28 50,37 84,68 876,782 2714,1216 3833,1685 416,174 483,242 814,417 3,-3 7,-10 9,-7l376 -216c842,-420 1742,-658 2647,-1002 464,-177 1014,-428 1405,-723 57,-44 119,-84 173,-132 262,-230 242,-210 464,-447 356,-380 596,-984 596,-1532l0 -6521c-75,0 -118,14 -213,14 -190,2 -402,31 -683,31 -678,0 -1112,3 -1790,-111 -1015,-170 -1990,-498 -2795,-1127 -71,-55 -133,-113 -204,-160 -83,124 -645,478 -831,582 -310,174 -636,309 -999,430 -736,246 -1653,386 -2457,386z"/>
   <path class="fil5" d="M11525 1670c11,-6 4,-6 36,-14 12,-3 15,-1 28,-1 15,579 12,6451 -17,6500 49,306 -248,863 -437,1112 -1033,1364 -3080,1581 -4640,2337 -394,191 -340,249 -497,157 -633,-374 -1464,-622 -2218,-883 -768,-266 -1465,-525 -2100,-1001 -683,-513 -1074,-1119 -1074,-2023 1,-1033 0,-2067 0,-3101 0,-1025 -22,-2074 1,-3096 223,-15 583,27 831,29 1264,12 2467,-157 3604,-686 211,-98 945,-514 1041,-657 70,29 188,128 255,178 1178,887 2909,1173 4372,1166 146,-1 731,-44 815,-17zm-11007 5880c0,705 16,1112 365,1619 197,286 231,309 464,539 1167,1151 3218,1294 4717,2201 10,6 -17,16 39,13 41,-2 19,-5 45,-24 86,-64 175,-105 272,-156 1503,-801 3878,-1000 4899,-2580 352,-545 360,-883 360,-1627 0,-1980 18,-4000 -1,-5971l-846 33c-1281,17 -2513,-146 -3665,-689 -189,-89 -393,-201 -556,-310 -97,-64 -173,-113 -262,-178 -116,-86 -208,-127 -217,-213 -66,36 -40,-3 -69,27 -78,81 -3,31 -172,155 -1072,785 -2319,1108 -3662,1190 -287,17 -578,22 -867,18 -168,-2 -732,-51 -844,-30l0 5983z"/>
   <path class="fil6" d="M3933 8899c217,214 828,-188 1014,69l-1039 14 25 -83zm-1459 -3393l-6 -2353c568,29 1062,37 1625,-48 155,-23 335,-73 480,-87 58,-32 343,-102 436,-135 710,-256 939,-524 1095,-591 987,754 2094,938 3624,861l-7 3675 7 148 -1 140 1 97 -1 88c0,42 2,88 -1,129 -2,20 -4,38 -8,57 -10,37 -5,20 -15,35 10,53 -1,125 -32,160l-13 66 -57 137 -46 97c-20,58 -49,101 -89,141 -20,44 -24,40 -54,76 -16,18 -32,37 -47,58 -47,65 -32,67 -110,108 -10,17 -27,42 -42,58 -37,44 -1,20 -55,46 -38,38 -123,116 -179,148 -58,40 -66,63 -138,88 -27,42 -169,116 -235,140 -99,70 -926,426 -1053,418 -23,19 9,-1 -32,21 -18,10 -13,7 -33,15l-408 139c-158,56 -307,110 -463,175 -706,294 -343,326 -839,88 -278,-134 -613,-254 -924,-354 -167,-54 -843,-273 -925,-347 183,-5 366,-6 549,-8l529 3c-4,-3 -11,-14 -12,-16 0,-2 4,-5 3,-10 0,-7 6,-8 8,-12 131,-114 269,-78 448,-46l-3 -22c-142,-65 -286,-50 -413,14l-43 -44c18,-34 -1,-15 30,-40l-79 15c59,100 -148,20 -168,18 -250,-27 -424,150 -809,68l242 -929 -51 0c-24,128 -237,923 -277,997 -556,-211 -1095,-639 -1309,-1131 -145,-334 -106,-737 -106,-1128 0,-215 -10,-1084 6,-1223zm7327 1923l3 -4357 -97 6c-921,104 -2092,-40 -2926,-447 -158,-77 -472,-264 -606,-382 -104,-92 -36,-79 -241,68 -170,121 -339,230 -541,326 -936,444 -1957,503 -3000,429l0 3977c0,474 20,738 242,1082 163,251 417,476 676,647 572,376 1623,648 2358,956l435 220c349,-197 671,-333 1091,-476 1046,-356 2457,-751 2606,-2049z"/>
   <path class="fil7" d="M7756 8055c14,82 26,129 -50,142l-4 -84 54 -58zm-632 74c14,51 14,54 -32,68 -48,-49 -61,-115 -15,-158 27,29 36,51 47,90zm1460 -52c-6,-62 1,-112 45,-164 16,51 41,103 62,141l-107 23zm-908 -18c-15,33 -33,70 -43,123 -178,-7 -165,14 -236,13 -105,-1 -103,-42 -122,-143l-26 -99c63,15 94,27 163,19 33,35 10,-44 26,42 44,-46 3,-34 73,-56l50 44c21,-23 -2,-41 96,-11l19 68zm553 -37c129,130 -248,174 -328,180 0,-37 10,-67 8,-89 -5,-46 -12,-27 -27,-66 -23,-59 -17,-132 -6,-196 28,18 20,7 38,39 25,45 7,184 38,270 33,-18 43,6 35,-58 -4,-33 -13,-17 -32,-58l-28 -175c131,23 264,51 302,153zm246 -448c5,83 -32,150 -66,217l-133 -77c3,3 7,7 9,9l35 37c35,13 38,17 75,33l-27 53 157 -26 -47 163 -6 66 -80 27c27,63 -21,14 64,60l-67 2 -22 -85c-52,7 -34,19 -69,-1l-10 -66 -10 -11c-93,-76 -54,-43 -154,-92l-24 -12 -187 -49 -14 -59 -14 -252 96 40c-11,-12 -2,-7 -30,-22l-129 -54c-67,-27 -113,-40 -182,-60l-1 20c0,0 1,2 1,3 -129,15 -183,66 -320,52 -120,-12 -119,-59 -288,-61 -1,1 -7,14 -8,16 -1,2 -3,5 -4,7l-44 65c41,-23 39,-40 73,-12 50,41 -4,62 -4,62 -48,40 -67,-30 -105,-52 -53,19 -56,24 -78,67l-3 -30c-9,-56 -5,-41 -36,-61 61,10 77,17 128,-17 -31,-53 -76,-30 -147,-60 -2,3 -4,7 -5,8l-12 36 -124 -31 30 42c1,-3 5,7 8,10l38 10c-25,48 -40,62 -75,104 -24,30 -57,52 -55,98 50,108 124,-19 163,110 54,55 34,104 76,130 44,27 128,-10 132,39 14,21 9,-1 11,32 3,44 9,-36 -2,21 0,0 -20,46 -24,56 3,3 6,8 8,10l19 33c8,15 6,19 10,36 -25,16 6,2 -35,11l-107 27c-36,62 -176,38 -270,39 39,29 253,21 320,22l2068 -1c162,-3 125,-81 201,-155l-12 -93c-58,18 -70,68 -189,78 -134,12 -145,5 -188,-95l-44 -99 -27 -164 10 -116c-35,-57 -28,-95 -83,-151l-38 -17 61 -43c-54,-48 -52,-14 -84,-91l-100 -1c-45,77 -35,20 -96,74 40,51 56,17 86,62 28,42 -5,52 0,129z"/>
   <path class="fil8" d="M6068 7162c618,3 1196,-25 1815,-28 606,-3 1224,-15 1844,-18l1 -140 -3639 46 -31 -210 10 350z"/>
   <path class="fil9" d="M6860 8196l-734 -2c26,50 219,185 273,208 48,-40 606,-19 709,-20 250,-1 462,-11 714,-12 163,-1 1393,-39 1433,-5 78,-41 63,-43 110,-108 15,-21 31,-40 47,-58 30,-36 34,-32 54,-76l-245 3c-71,-6 -27,13 -42,-25 -76,74 -39,152 -201,155l-2068 1c-67,-1 -281,7 -320,-22 94,-1 234,23 270,-39z"/>
   <path class="fil10" d="M6122 3561c-124,140 -9,529 545,531 633,3 1230,-497 1870,-453 235,16 442,133 546,324 49,90 39,146 36,253 153,-347 -115,-619 -386,-693 -593,-162 -1298,334 -1857,436 -174,31 -369,39 -531,-24 -163,-63 -245,-161 -223,-374z"/>
   <path class="fil11" d="M5683 8827l-31 -33 57 -22c127,-41 68,1 98,-48l-145 1c-58,-52 -100,-25 -80,-95 14,-47 144,11 181,-73 -47,2 -91,23 -135,2 0,-1 -108,-73 -31,-104 45,-18 54,12 133,-38 -42,-30 -58,-5 -105,-17 -18,-4 -51,-30 -84,-45l14 -90c58,-11 81,-8 132,-46 -67,-46 -109,31 -143,-61l-15 -47c20,0 67,-6 69,-6l51 -28c2,-7 8,-6 12,-10 -4,-3 -10,-5 -13,-6l-65 -9 -43 -77c-180,-10 -258,-91 -412,-105l-25 35c-29,84 83,110 129,79 -53,60 -4,9 -135,36 0,93 -8,99 66,120l21 6c21,8 26,12 36,19 -61,-2 -97,6 -104,-14 -30,62 -35,116 9,165 2,2 6,6 8,8 3,3 14,11 18,15 -127,108 -26,109 19,174 -49,-13 -54,-25 -54,123l180 39c-66,16 -121,-7 -139,0 -2,1 -6,2 -9,4 -36,23 -10,-6 -32,42 140,0 163,-18 303,25 86,26 170,60 264,81z"/>
   <path class="fil12" d="M4408 7974c-30,19 -27,10 -44,47 26,31 -8,3 26,27 27,20 -12,-1 29,15 55,21 14,-29 47,19 -37,-21 54,-10 -22,-1l-104 32 6 91 51 15c3,1 8,4 10,4l-60 27c-5,31 -4,81 -12,105 -10,27 3,12 -24,31l-16 0c15,20 1,8 31,26 21,13 13,10 39,17 0,38 4,62 5,95 6,136 -40,19 -31,136 8,105 -11,29 32,68l18 69c52,-22 359,-140 439,-60 40,-13 33,26 33,-31 -33,-22 -22,-10 -53,-24 -5,-2 -9,-4 -13,-6l66 -30 0 -122 -162 -20c-54,-10 -26,19 -45,-30 21,-23 91,21 200,11 0,-162 3,-101 -79,-168 109,1 89,-17 79,-143 -89,-29 -55,10 -71,-29 -3,-7 -10,-6 -14,-7l93 -8 -10 -109c-61,-20 -65,4 -111,-34l120 -11 -2 -101c-178,-7 -268,84 -451,99z"/>
   <path class="fil13" d="M6582 7324c-13,84 -114,66 -186,64 -40,-1 -44,6 -86,5 0,0 -56,-11 -84,-11 1,28 11,15 29,67l-117 4c-235,-32 -236,8 -338,8 -17,34 6,2 -15,40l-139 -2c-68,44 -58,-6 -104,43 40,13 466,-22 558,-38 186,-30 408,-44 601,-25 -3,-3 -7,-13 -8,-10l-30 -42 124 31 12 -36c1,-1 3,-5 5,-8 71,30 116,7 147,60 -51,34 -67,27 -128,17 31,20 27,5 36,61l3 30c22,-43 25,-48 78,-67 38,22 57,92 105,52 0,0 54,-21 4,-62 -34,-28 -32,-11 -73,12l44 -65c1,-2 3,-5 4,-7 1,-2 7,-15 8,-16 169,2 168,49 288,61 137,14 191,-37 320,-52 0,-1 -1,-3 -1,-3l1 -20c69,20 115,33 182,60l129 54c28,15 19,10 30,22 23,37 -57,30 54,30 -6,-67 -82,-47 182,-47 76,0 152,-2 228,-1 10,54 12,22 30,41 -5,-77 28,-87 0,-129 -30,-45 -46,-11 -86,-62 61,-54 51,3 96,-74l-1903 15z"/>
   <path class="fil14" d="M7027 8857c15,26 210,168 258,204 82,60 210,139 268,202 127,8 954,-348 1053,-418 -16,-9 -1518,-14 -1579,12z"/>
   <path class="fil15" d="M6068 7162l1 98 3659 -47 -1 -97c-620,3 -1238,15 -1844,18 -619,3 -1197,31 -1815,28z"/>
   <path class="fil16" d="M6399 8402c24,37 101,87 148,112 35,-32 28,-22 150,-22l502 -1c226,0 419,-14 654,-13l1155 -16c32,0 60,-3 88,-5 68,-3 43,-4 62,12 54,-26 18,-2 55,-46 15,-16 32,-41 42,-58 -40,-34 -1270,4 -1433,5 -252,1 -464,11 -714,12 -103,1 -661,-20 -709,20z"/>
   <path class="fil17" d="M6547 8514l162 121c28,-33 -48,-27 49,-26l1946 -19c45,0 91,0 137,-1 156,-2 117,1 138,28 56,-32 141,-110 179,-148 -19,-16 6,-15 -62,-12 -28,2 -56,5 -88,5l-1155 16c-235,-1 -428,13 -654,13l-502 1c-122,0 -115,-10 -150,22z"/>
   <path class="fil18" d="M6069 7260l6 62 8 22c100,-3 116,-22 234,-13 116,8 149,-21 265,-7l1903 -15 100 1 1142 -9 1 -88 -3659 47z"/>
   <path class="fil7" d="M7549 10199c-22,-47 -31,-94 -10,-149 131,-17 105,116 10,149zm406 -205c142,-58 307,351 80,370 -40,-56 -83,-287 -80,-370zm-391 264c62,21 136,123 104,216 251,-26 585,-30 610,-234 16,-131 -61,-237 -142,-283 -98,-55 -244,-4 -352,19 45,117 22,6 65,208 18,83 52,170 31,256 -53,-32 -164,-208 -193,-263 58,-61 84,-75 46,-181 -68,-19 -291,2 -360,32 -22,31 -9,-7 5,33 34,98 72,367 43,448l189 -24c-21,-43 -33,-41 -46,-108 -9,-47 -17,-85 0,-119z"/>
   <path class="fil19" d="M6839 8724c46,40 126,113 188,133 61,-26 1563,-21 1579,-12 66,-24 208,-98 235,-140 -33,-38 -980,-15 -1059,-6 -151,16 -901,-6 -943,25z"/>
   <path class="fil7" d="M4539 2094c-116,95 -159,46 -181,-80 -16,-86 -58,-214 -31,-283 245,-50 335,262 212,363zm-496 -382c77,56 77,157 94,249 35,180 58,177 2,276 251,-28 747,-54 663,-362 -33,-119 -150,-203 -298,-216 -139,-13 -319,40 -461,53z"/>
   <path class="fil20" d="M5433 7689l207 150 1088 -3c64,-15 30,26 44,-35 -39,-129 -113,-2 -163,-110l-33 -47c-182,-2 -428,-13 -588,7l-431 5c-134,-3 -112,7 -124,33z"/>
   <path class="fil21" d="M6709 8635c47,35 73,65 130,89 42,-31 792,-9 943,-25 79,-9 1026,-32 1059,6 72,-25 80,-48 138,-88 -21,-27 18,-30 -138,-28 -46,1 -92,1 -137,1l-1946 19c-97,-1 -21,-7 -49,26z"/>
   <path class="fil7" d="M10494 4932c57,-23 12,-44 171,-44l308 3 -334 122 341 127 -315 5c-132,0 -79,-3 -172,-42l-1 218c152,-57 293,-34 507,-34 76,0 103,17 155,34l-2 -215c-74,16 -155,-6 -213,-49 72,-31 136,-54 209,-36l7 -224c-164,55 -290,33 -505,33 -108,0 -83,-3 -158,-33l2 135z"/>
   <path class="fil22" d="M5542 7542l-46 -47c-50,1 -101,2 -152,1 -151,-3 -120,-7 -132,25 25,35 177,144 221,168 12,-26 -10,-36 124,-33l431 -5c160,-20 406,-9 588,-7l33 47c-2,-46 31,-68 55,-98 35,-42 50,-56 75,-104l-38 -10c-193,-19 -415,-5 -601,25 -92,16 -518,51 -558,38z"/>
   <path class="fil7" d="M11081 6940c28,121 -151,130 -203,-18 80,-3 153,-12 203,18zm-594 294c108,-35 279,-110 391,-152 76,69 128,116 260,62 25,-95 18,-286 14,-398 -68,27 -47,33 -152,34 -140,1 -438,29 -478,-39 -44,25 -31,18 -32,94 0,38 2,81 6,119 152,-43 72,-39 308,-32 -16,45 6,26 -54,61 -118,68 -171,61 -257,36l-6 215z"/>
   <path class="fil7" d="M1564 3959c89,-14 240,-27 308,27 102,82 -59,138 -126,150 -326,56 -545,-120 -182,-177zm-260 141c67,292 757,249 677,-102 -68,-295 -758,-253 -677,102z"/>
   <path class="fil7" d="M8779 1992c14,-37 60,-103 102,-125l19 180c-37,-18 -78,-41 -121,-55zm420 340c-73,-89 -63,-141 -83,-270 -51,-318 -31,-157 -6,-281l-269 -57c-2,3 -3,9 -4,12 -1,3 -3,8 -4,12 -32,94 -80,134 -161,238 -96,123 -77,122 -181,181 -25,14 -13,4 -28,23l220 36c-36,-47 -79,-53 51,-182 76,15 132,49 168,96 71,92 -8,97 -41,130 72,22 271,72 338,62z"/>
   <path class="fil7" d="M3589 1904c135,-104 252,12 326,16l-105 -146 -498 137c52,45 52,13 80,97 17,50 28,95 43,140 57,180 82,183 30,260 59,4 452,-102 532,-128l15 -220c-44,24 -14,0 -59,86 -59,114 -201,165 -249,129 -22,-16 -66,-135 -65,-208 1,-5 2,-7 3,-10 136,-44 129,3 216,34l-110 -180c-32,57 -28,95 -147,86l-12 -93z"/>
   <path class="fil7" d="M6566 1625l62 167 -132 -36 70 -131zm-89 -132c2,5 6,13 7,16l6 17c10,52 -57,173 -90,240 -151,313 -75,144 -166,257l228 0 -42 -48c-15,-31 -11,-15 -1,-52 7,-27 32,-76 50,-98 91,2 234,45 225,129 -6,55 5,5 -20,40l317 29c-102,-120 -53,-36 -147,-259 -74,-175 -81,-138 -74,-273l-293 2z"/>
   <path class="fil22" d="M8646 7461c55,56 48,94 83,151l963 -1 -21 71c31,-35 42,-107 32,-160l3 -90c-42,-1 -1012,-6 -1060,29z"/>
   <path class="fil7" d="M6198 2031l49 -131c11,-75 12,-22 -10,-47 -163,236 -413,89 -440,-64 -23,-130 38,-211 155,-220 176,-13 160,122 250,120l-58 -201c-247,-7 -607,-4 -569,298 44,351 529,240 623,245z"/>
   <path class="fil23" d="M5640 7839l223 158c145,-16 1062,15 1117,-27 -4,-49 -88,-12 -132,-39 -42,-26 -22,-75 -76,-130 -14,61 20,20 -44,35l-1088 3z"/>
   <path class="fil7" d="M5502 1526c-46,3 -93,7 -139,11l-85 19c-1,-4 -7,3 -10,5 91,49 80,48 104,169 16,83 44,172 8,244 -29,48 -225,122 -251,-63 -46,-327 -15,-274 41,-354l-336 39c67,50 66,4 76,131 18,242 -24,389 268,374 462,-25 261,-300 259,-515l65 -60z"/>
   <path class="fil7" d="M1490 6959c-85,7 -149,-17 -97,-105 30,-49 87,-52 121,-101l-199 12c0,44 -102,404 242,343 93,-17 120,-71 155,-150 104,-234 268,-32 156,80 -46,46 -103,40 -149,81l259 -16c-32,-60 34,-149 -3,-257 -22,-63 -86,-118 -159,-133 -238,-51 -246,119 -326,246z"/>
   <path class="fil24" d="M4211 7991l-242 929c385,82 559,-95 809,-68 20,2 227,82 168,-18 -82,-1 -29,16 -58,-37l-20 2c-19,-8 -2,6 -19,-12 -26,-27 -21,65 -21,-50 -80,-80 -387,38 -439,60 -77,22 -223,74 -306,31 1,-36 42,-192 51,-232 15,-62 47,-169 55,-240 18,-56 64,-264 68,-326 -31,-36 -24,47 -26,-51l-20 12z"/>
   <path class="fil7" d="M10979 4267l100 7c27,129 -60,143 -99,173 -22,17 -9,2 -26,25l201 -11c-6,-50 94,-383 -230,-344 -229,28 -110,296 -342,244 -25,-55 -43,-109 10,-166 38,-43 92,-50 132,-67l-236 -10c29,74 -97,335 157,395 250,59 246,-131 333,-246z"/>
   <path class="fil7" d="M11075 7732c-456,-88 -226,349 -503,217 -25,-103 -14,-157 93,-200l84 -40 -191 6 -70 8c42,92 -66,208 43,325 61,66 202,105 299,48 104,-62 91,-223 186,-230 85,-7 87,70 52,117 -25,34 -55,37 -90,64 -24,19 -7,1 -26,28l200 -12c-3,-79 23,-136 12,-206 -13,-80 -51,-81 -89,-125z"/>
   <path class="fil7" d="M7995 1593c71,108 62,125 94,264 56,244 69,189 15,280l258 35c-28,-78 -9,-73 37,-141 29,-41 58,-85 86,-127 30,-45 54,-85 85,-127 49,-63 78,-61 103,-96l-218 -30c45,82 53,51 -29,179 -37,58 -56,96 -97,150 -23,-53 -37,-134 -50,-193 -34,-147 14,-111 27,-160 -91,-11 -225,-46 -311,-34z"/>
   <path class="fil7" d="M1970 3616c-57,24 -22,35 -106,43l-414 -1c69,-58 158,-104 241,-157 211,-135 168,-104 284,-51l-8 -135c-139,52 -511,52 -653,0l5 125c106,-40 79,-33 207,-33 -17,22 -76,63 -99,75 -133,72 -115,-125 -115,269 64,-23 62,-33 155,-33 61,-1 122,0 183,0 156,0 198,-13 324,33l-4 -135z"/>
   <path class="fil7" d="M1973 7474c-170,68 -280,46 -523,43 55,-54 167,-113 248,-162 221,-136 156,-99 276,-47l-4 -135c-152,51 -503,51 -657,0l-1 125c99,-34 89,-33 216,-32 -112,114 -193,91 -217,102l3 242c142,-47 183,-34 336,-34 61,0 123,-1 184,0 90,1 79,9 139,34l0 -136z"/>
   <path class="fil7" d="M10781 3844l37 -91 158 37c-51,36 -134,46 -195,54zm-287 -113c108,-51 17,-49 248,-1 -38,235 -202,144 -249,127l-1 235c130,-59 520,-177 661,-145l0 -209c-112,28 -358,-53 -507,-92 -84,-22 -96,-45 -154,-71l2 156z"/>
   <path class="fil7" d="M10665 7661l89 11c-53,-63 -262,-95 -180,-225 39,-45 244,-29 293,-23 13,119 -33,92 -105,142l250 -30c-65,-46 -69,-1 -72,-113 85,-5 184,-18 137,97 -25,61 -83,77 -132,108 52,21 152,-13 212,-24l-3 -359c-63,23 -60,34 -154,34 -162,2 -365,23 -513,-36l2 375 176 43z"/>
   <path class="fil6" d="M10491 6660c77,-4 162,21 235,40 69,-31 -3,-4 -105,-78 -48,-35 -121,-150 13,-172 16,-3 57,-2 76,-2 54,0 107,0 161,0 -5,135 -22,88 -109,140l250 -22c-67,-48 -69,-3 -72,-115 80,-5 172,-22 141,85 -21,70 -80,87 -137,120 50,22 154,-14 218,-24l-10 -359c-136,51 -145,34 -320,34 -147,0 -224,16 -339,-34l-2 387z"/>
   <path class="fil7" d="M6909 1667c82,-19 30,-100 229,-97l-31 384c-24,80 -20,20 -66,79 95,5 247,30 334,11 -83,-70 -58,-87 -48,-209 7,-79 3,-167 24,-243 163,-14 135,100 206,115l-28 -178 -558 -34 -62 172z"/>
   <path class="fil7" d="M1312 5245c53,-26 58,-47 140,-55 130,-14 348,-28 444,28 27,165 -85,147 -230,144 -229,-4 -190,18 -355,-54l6 241c4,-2 7,-7 9,-9l25 -23c142,-97 662,148 635,-216 -11,-154 -116,-183 -274,-180 -302,6 -228,47 -400,-40l0 164z"/>
   <path class="fil7" d="M10481 5635c40,97 41,98 138,139 159,14 365,-11 426,-4 83,10 42,25 109,50l0 -163c-117,49 -8,51 -276,62 -133,5 -207,17 -307,-33 -38,-188 139,-158 429,-143 98,5 92,24 154,50l-1 -230c-97,39 -36,45 -184,41 -76,-2 -152,-6 -228,-7 -210,-3 -269,23 -260,238z"/>
   <path class="fil7" d="M1768 4595c43,43 83,40 111,82 152,229 -463,320 -485,119 -10,-87 81,-106 122,-132l46 -43 -253 36c-60,295 61,419 356,398 161,-11 319,-87 323,-256l-27 -163 -193 -41z"/>
   <path class="fil20" d="M8719 7728c9,10 8,-9 30,37 160,-2 808,19 909,-17l13 -66 21 -71 -963 1 -10 116z"/>
   <path class="fil13" d="M8646 7461c48,-35 1018,-30 1060,-29l-3 90c10,-15 5,2 15,-35 4,-19 6,-37 8,-57 3,-41 1,-87 1,-129l-1142 9c32,77 30,43 84,91l-61 43 38 17z"/>
   <path class="fil7" d="M3176 9749c-27,-219 102,-140 -169,-232 0,114 -30,154 -65,252 -13,38 -29,88 -44,124 -32,80 -36,40 -57,84l116 36c-38,-106 42,-251 87,-347l17 270c14,-9 181,-172 194,-190 -8,48 -105,335 -150,327l189 64c-25,-89 22,-157 55,-250 56,-157 28,-123 106,-207l-178 -62c-28,62 -64,91 -101,131z"/>
   <path class="fil7" d="M8990 9913c128,66 131,205 3,219 -38,-49 -51,-123 -63,-185l60 -34zm-19 -152c21,78 -14,94 -54,127 -77,-100 -19,-124 -19,-130l73 3zm-266 3c46,66 68,129 97,227 27,92 66,153 39,240 87,-16 309,-81 348,-129 36,-45 29,-114 -1,-162 -34,-52 -69,-64 -144,-84 38,-42 84,-102 26,-165 -70,-43 -283,49 -365,73z"/>
   <path class="fil25" d="M5212 7521c12,-32 -19,-28 132,-25 51,1 102,0 152,-1l46 47c46,-49 36,1 104,-43l136 -52 5 -140 -865 -1 290 215z"/>
   <path class="fil26" d="M5540 7975l43 77 65 9c3,1 9,3 13,6 -4,4 -10,3 -12,10l-51 28c-2,0 -49,6 -69,6l15 47c34,92 76,15 143,61 -51,38 -74,35 -132,46l-14 90c33,15 66,41 84,45 47,12 63,-13 105,17 -79,50 -88,20 -133,38 -77,31 31,103 31,104 44,21 88,0 135,-2 -37,84 -167,26 -181,73 -20,70 22,43 80,95l145 -1c-30,49 29,7 -98,48l-57 22 31 33c77,6 103,33 178,0l-61 -248 -6 -38c7,-72 -103,-520 -135,-587l-119 21z"/>
   <path class="fil20" d="M7899 7763c66,25 227,16 319,16 54,-1 76,2 102,-19l-35 -37c-2,-2 -6,-6 -9,-9l133 77c34,-67 71,-134 66,-217 -18,-19 -20,13 -30,-41 -76,-1 -152,1 -228,1 -264,0 -188,-20 -182,47 -111,0 -31,7 -54,-30l-96 -40 14 252z"/>
   <path class="fil7" d="M5120 10108c147,-132 156,271 73,334 -141,108 -172,-244 -73,-334zm241 270c133,-328 -297,-503 -413,-215 -133,332 293,508 413,215z"/>
   <path class="fil7" d="M1398 6403c-10,-120 71,-81 135,-152l-221 29 -6 383 180 28c4,0 9,-1 11,-1l20 -4c2,-3 7,-1 10,-2 -74,-44 -123,-34 -136,-138 107,-1 214,0 320,0 206,-1 160,-17 261,52l2 -237c-163,68 -347,44 -576,42z"/>
   <path class="fil7" d="M3688 9802c82,121 -8,427 -128,357 -68,-39 -47,-370 128,-357zm156 241c94,-341 -362,-422 -441,-117 -87,332 351,443 441,117z"/>
   <path class="fil7" d="M8599 10240c-110,18 -127,-42 -160,-130 -27,-69 -54,-194 17,-224 110,-48 208,234 143,354zm-299 -106c94,310 519,196 439,-126 -82,-332 -541,-212 -439,126z"/>
   <path class="fil7" d="M7185 10468c-104,15 -121,-39 -142,-131 -15,-65 -30,-196 29,-228 125,-70 186,241 113,359zm-287 -151c33,315 490,291 453,-60 -34,-319 -489,-292 -453,60z"/>
   <path class="fil7" d="M1392 5696c11,-99 59,-94 135,-137 -39,-21 -183,6 -216,30l-2 372 183 0c-3,-2 -7,-3 -11,-5 -19,-10 -27,-8 -50,-27 -30,-24 -36,-40 -34,-90 241,-2 406,-27 577,43l-5 -229c-61,23 -15,37 -120,43l-457 0z"/>
   <path class="fil27" d="M5029 7908l3 858 54 16c67,19 67,-76 386,32 90,30 270,102 404,59l-30 -304c-36,-29 -18,-9 -46,10l61 248c-75,33 -101,6 -178,0 -94,-21 -178,-55 -264,-81 -140,-43 -163,-25 -303,-25 22,-48 -4,-19 32,-42 3,-2 7,-3 9,-4 18,-7 73,16 139,0l-180 -39c0,-148 5,-136 54,-123 -45,-65 -146,-66 -19,-174 -4,-4 -15,-12 -18,-15 -2,-2 -6,-6 -8,-8 -44,-49 -39,-103 -9,-165 7,20 43,12 104,14 -10,-7 -15,-11 -36,-19l-21 -6c-74,-21 -66,-27 -66,-120 131,-27 82,24 135,-36 -46,31 -158,5 -129,-79l25 -35c-61,7 -65,3 -99,38z"/>
   <path class="fil28" d="M5863 7997c29,52 93,94 145,111l948 -2 9 -27c4,-10 24,-56 24,-56 11,-57 5,23 2,-21 -2,-33 3,-11 -11,-32 -55,42 -972,11 -1117,27z"/>
   <path class="fil7" d="M10492 3573c121,0 215,49 262,23 -164,-54 -343,-209 -44,-209 221,0 271,-20 444,37l0 -212c-159,54 -303,34 -504,34 -108,0 -81,-5 -158,-34l0 361z"/>
   <path class="fil7" d="M10665 6182c201,1 333,-19 489,33l0 -219c-156,62 -63,44 -292,44 -94,0 -242,25 -301,-40 -32,-82 88,-95 135,-97l70 -10 -93 -39c-40,-20 -14,-2 -40,-26 -64,3 -70,-9 -113,42 -35,42 -46,80 -40,145 9,112 74,158 185,167z"/>
   <path class="fil10" d="M7472 4008c109,-8 322,-69 433,-98 289,-75 653,-155 921,7 84,51 239,168 233,297 39,-294 -324,-512 -675,-486 -160,12 -787,206 -912,280z"/>
   <path class="fil7" d="M7635 1548c3,4 11,15 13,19l19 43c10,48 -12,167 -18,221 -35,303 -23,160 -74,245l299 23c-26,-81 -54,54 -17,-263 34,-290 9,-168 78,-261l-300 -27z"/>
   <path class="fil7" d="M5396 10539c112,-9 173,54 291,-1 67,-32 133,-144 68,-237 -39,-57 -195,-73 -197,-139 -1,-62 60,-61 107,-32l62 70 18 -111c-72,-42 -337,-92 -329,121 8,186 270,109 208,264 -43,36 -110,36 -157,-6 -43,-39 -32,-84 -67,-126l-4 197z"/>
   <path class="fil29" d="M4677 7119l1122 1 11 -20 -3 -14 11 -62 -1264 4c21,27 24,32 57,55 29,21 37,27 66,36z"/>
   <path class="fil30" d="M4838 7248c57,-46 402,-24 476,-24 160,0 320,-2 479,-1l6 -103 -1122 -1c40,51 103,95 161,129z"/>
   <path class="fil31" d="M8746 7892l855 -7 57 -137c-101,36 -749,15 -909,17 -22,-46 -21,-27 -30,-37l27 164z"/>
   <path class="fil32" d="M4257 8030c-4,62 -50,270 -68,326 27,0 21,120 -6,186 -2,3 -4,8 -6,12 81,50 47,84 43,180 23,9 39,28 106,13 34,-8 29,-9 45,-19 -43,-39 -24,37 -32,-68 -9,-117 37,0 31,-136 -1,-33 -5,-57 -5,-95 -26,-7 -18,-4 -39,-17 -30,-18 -16,-6 -31,-26l16 0c27,-19 14,-4 24,-31 8,-24 7,-74 12,-105l60 -27c-2,0 -7,-3 -10,-4l-51 -15 -6 -91 104 -32c76,-9 -15,-20 22,1 -33,-48 8,2 -47,-19 -41,-16 -2,5 -29,-15 -34,-24 0,4 -26,-27 17,-37 14,-28 44,-47l-148 -14 -3 70z"/>
   <path class="fil33" d="M9282 9707c19,18 31,30 51,56 24,32 27,36 43,71l-88 -6 -6 -121zm45 336c-31,-38 -30,-66 -30,-150 116,-16 204,14 168,126 53,-11 160,-49 198,-82 -94,-55 -255,-286 -306,-392l-164 62c61,90 60,420 33,513l132 -47 -31 -30z"/>
   <path class="fil10" d="M9176 4283c522,-313 36,-934 -632,-872 127,-32 665,145 724,537 27,182 -42,227 -92,335z"/>
   <path class="fil33" d="M3917 9817c38,64 -5,177 -21,251 -49,226 -61,196 -70,229l115 16c-39,-83 -26,-78 -2,-187 14,-61 19,-141 53,-193 22,71 67,146 103,220 72,150 54,124 16,186l99 34c-21,-81 25,-298 53,-392 21,-66 29,-42 44,-85l-109 -19c24,81 15,69 -2,158 -153,-201 91,-142 -279,-218z"/>
   <path class="fil33" d="M3656 4448c4,6 13,-3 24,41 18,79 0,23 -8,41 -55,-29 -46,-8 -16,-82zm-298 42c-6,-71 -18,-63 25,-91 14,6 64,-9 30,60 -12,25 -31,23 -55,31zm-92 -26c0,63 7,142 -19,196l126 0c-26,-55 -18,-69 -18,-134 116,38 31,125 89,134l170 0c-26,-48 -20,-60 13,-107 123,22 73,79 91,107l126 0c-24,-37 -43,-85 -61,-139 -11,-32 -16,-49 -25,-81 -3,-8 12,-96 -101,-70 -48,11 -25,49 -81,196 -1,0 -13,30 -14,31 -20,35 -8,18 -27,32l-73 -134c138,-152 -42,-130 -214,-123 20,41 18,34 18,92z"/>
   <path class="fil7" d="M1314 4554c64,-13 43,-33 153,-34 181,-2 357,-15 506,34l-2 -209c-154,51 -502,52 -659,0l2 209z"/>
   <path class="fil7" d="M6889 10411c-64,27 -69,130 -186,86 -59,-22 -100,-98 -107,-182 -12,-161 107,-238 192,-134 38,45 22,44 68,73l-39 -194c-200,33 -396,-30 -357,283 12,93 63,167 128,205 55,31 146,32 205,18l62 -26 34 -129z"/>
   <path class="fil7" d="M1315 6225c58,-11 38,-33 152,-34 61,0 123,1 183,1 150,0 183,-13 323,33l-2 -208c-74,24 -43,33 -153,34 -181,1 -356,14 -506,-34l3 208z"/>
   <path class="fil7" d="M1315 7882c65,-14 42,-33 152,-34 61,-1 123,1 183,1 150,0 183,-14 323,33l-1 -209c-70,31 -48,34 -154,34 -184,1 -353,16 -506,-34l3 209z"/>
   <path class="fil34" d="M5810 7100l-11 20 -6 103c-159,-1 -319,1 -479,1 -74,0 -419,-22 -476,24 38,33 37,38 84,58l865 1c29,-32 -44,-39 49,-21 10,36 12,30 22,56 13,36 14,53 18,90l7 -33c10,-59 11,-108 15,-168 9,-170 21,-120 -35,-163 -5,18 -7,48 -15,70 -9,25 -1,6 -17,34l-21 -72z"/>
   <path class="fil35" d="M4888 8797c29,53 -24,36 58,37l79 -15c106,-18 27,0 61,-37l-54 -16 -3 -858c-37,17 -11,5 -36,18 -2,1 -16,11 -23,15 -18,-30 -6,-18 -45,-30l1 870 -38 16z"/>
   <path class="fil36" d="M5794 8541l6 38c28,-19 10,-39 46,-10l30 304c-134,43 -314,-29 -404,-59 -319,-108 -319,-13 -386,-32 -34,37 45,19 -61,37 -31,25 -12,6 -30,40l43 44c127,-64 271,-79 413,-14 148,22 358,94 509,23l-260 -935c-2,55 42,212 58,283 12,55 21,98 33,150 34,138 22,105 3,131z"/>
   <path class="fil37" d="M5967 6263l7 56 48 122c-38,25 40,-25 -13,6l-21 13c-35,21 -26,18 -62,29l-3 -113c-10,15 -8,8 -16,36 -1,3 -2,28 -2,33l0 220 44 -59 84 11c-31,122 -60,86 -79,157l22 -16 18 -12c2,-7 7,10 11,14 -9,188 -18,108 -30,172 -8,45 23,109 30,159 22,26 29,33 38,79 -29,36 -59,65 -84,89l-34 -143 -11 159c54,54 93,41 130,-29 7,117 10,49 31,76l-6 -62 -1 -98 -10 -350 -14 -688c1,-91 6,-27 -20,-52 -3,61 -26,157 -57,191z"/>
   <path class="fil38" d="M5451 8889l3 22c58,19 218,49 285,52 50,2 109,-3 158,-12 15,-3 73,-17 77,-18 41,-3 18,-26 53,22 -45,55 -175,25 -242,24 -84,-2 -170,-7 -254,-3 -118,5 -418,6 -525,-19 -2,4 -8,5 -8,12 1,5 -3,8 -3,10 1,2 8,13 12,16 176,-33 829,3 1052,9l-299 -1038 -60 11 260 935c-151,71 -361,-1 -509,-23z"/>
   <path class="fil33" d="M4558 9972l-28 140c40,-55 49,-88 143,-84 -7,73 -21,152 -31,227 -29,212 -36,124 -58,194l201 26c-51,-98 0,-307 19,-425 95,3 72,46 115,110 16,-33 7,-101 5,-153 -61,-21 -129,-23 -194,-33 -147,-21 -126,-36 -172,-2z"/>
   <path class="fil39" d="M5756 5204c-43,30 -12,-13 -14,35 -1,20 4,28 11,52 11,93 14,157 92,192 22,12 26,-10 18,14 7,-52 18,-37 30,-59 19,-34 14,10 23,-56 -8,-94 7,-125 -35,-190 -18,-28 -27,-34 -39,-67 -23,-59 4,-40 -32,-89l-59 -82c-27,-58 -14,-39 -60,-90 -27,-29 -43,-57 -76,-77 -24,-15 -23,-11 -50,-26 -40,-22 -6,-8 -37,-23 -97,106 257,385 303,472 30,57 15,75 0,97 -49,-27 -46,-49 -75,-103z"/>
   <path class="fil1" d="M4327 1731c-27,69 15,197 31,283 22,126 65,175 181,80 123,-101 33,-413 -212,-363z"/>
   <path class="fil1" d="M1564 3959c-363,57 -144,233 182,177 67,-12 228,-68 126,-150 -68,-54 -219,-41 -308,-27z"/>
   <path class="fil40" d="M8790 7991c128,4 266,-5 385,-3 122,1 260,16 380,-6l46 -97 -855 7 44 99z"/>
   <path class="fil41" d="M6008 8108c30,44 70,73 118,86l734 2 107 -27c41,-9 10,5 35,-11 -4,-17 -2,-21 -10,-36l-19 -33c-2,-2 -5,-7 -8,-10l-9 27 -948 2z"/>
   <path class="fil42" d="M5615 5952c78,-29 12,-26 96,-52 -20,40 -26,42 -45,77 -25,47 29,-59 -18,42 -1,3 -4,9 -5,11l-15 23c-97,10 -126,7 -150,105l129 -34c-125,79 -193,31 -139,274 46,25 19,30 48,-16 24,-38 -8,-108 73,-203l-9 186c-37,38 -25,10 -38,60 -24,20 -28,5 -47,8l1 76 100 -59c33,65 -31,40 11,8l27 -63c4,-5 9,-10 14,-15 16,18 36,34 59,45l-19 -61c-43,-20 1,9 -44,-26 -20,-17 -16,-18 -41,-34l13 -168c87,25 57,-2 108,79l-11 -68c-60,-20 -54,-9 -65,-70 85,-13 62,21 108,53 22,-43 12,-57 -16,-91 -13,-2 -27,7 -46,-9 22,-93 17,-44 43,-99 24,-53 -15,-24 55,-51 15,-37 12,-44 75,-45l-60 -7c-123,40 -205,3 -255,131l63 -7z"/>
   <path class="fil27" d="M4828 8737c0,115 -5,23 21,50 17,18 0,4 19,12l20 -2 38 -16 -1 -870 -66 -36 2 101 -120 11c46,38 50,14 111,34l10 109 -93 8c4,1 11,0 14,7 16,39 -18,0 71,29 10,126 30,144 -79,143 82,67 79,6 79,168 -109,10 -179,-34 -200,-11 19,49 -9,20 45,30l162 20 0 122 -66 30c4,2 8,4 13,6 31,14 20,2 53,24 0,57 7,18 -33,31z"/>
   <path class="fil43" d="M5337 5832c2,-4 12,-22 -38,-30 30,-46 6,-39 38,-83l66 -61c-332,128 -351,473 -256,553 95,-11 217,-301 207,-347 -9,-41 17,-5 -17,-32z"/>
   <path class="fil44" d="M6394 5309l-46 52 109 -1c104,-75 232,-116 377,-133 -12,44 14,65 -60,74 -79,8 42,-6 -62,-18 -30,41 -34,58 -95,82 -4,2 -28,9 -32,10 -75,10 -4,-11 -70,-14 13,-11 -25,-34 19,-3l8 19c1,-3 3,9 3,14 -33,29 -3,4 -42,26l-67 37c-12,5 -29,-2 -56,25l-9 21c0,0 34,-9 -8,7 -53,20 -8,-30 -86,43 -79,74 -43,33 -27,118 34,-14 12,9 44,-30 37,-29 18,-16 73,-34 -21,-12 -9,-12 -22,-31 92,-52 36,-75 313,-175 93,-33 317,-152 172,-232 -45,22 -162,6 -298,62 -97,39 -55,19 -74,-2 -11,90 -6,32 -64,83z"/>
   <path class="fil45" d="M9179 8101c15,38 -29,19 42,25l245 -3c40,-40 69,-83 89,-141 -120,22 -258,7 -380,6 -119,-2 -257,7 -385,3 43,100 54,107 188,95 119,-10 131,-60 189,-78l12 93z"/>
   <path class="fil10" d="M9191 4342c599,31 410,-597 166,-746 78,181 255,420 25,635 -74,69 -114,63 -191,111z"/>
   <path class="fil46" d="M4640 7556l17 84 -56 -29 39 -55zm-263 9c0,86 11,145 -17,197 289,5 186,24 224,-105 118,17 89,67 102,90 12,19 -47,22 65,19l58 -3c-33,-42 -104,-224 -89,-287l-129 4c13,37 -36,172 -57,218 -27,59 -11,41 -56,49 -11,-61 -30,-224 8,-266l-127 -4c20,38 18,32 18,88z"/>
   <path class="fil47" d="M5116 5385c175,32 176,-11 235,-21 49,-9 -7,27 45,-4 -4,81 -23,66 20,135l64 20 34 -82 26 97 122 30c63,7 109,5 149,-30 -43,-78 -196,-149 -321,-179 -138,-33 -192,-45 -318,-11 -13,4 -44,6 -58,27 -32,52 -5,9 2,18z"/>
   <path class="fil7" d="M4558 9972c-24,-27 -7,-14 -40,-29l-152 -31c26,81 -2,163 -22,256 -46,205 -12,91 -75,223l187 28c-44,-83 42,-336 63,-445l39 -2z"/>
   <path class="fil48" d="M6183 5482c-24,30 -58,67 -78,92 -9,11 -47,70 -79,66 -18,-28 -12,-81 -14,-109 -31,44 -25,47 -21,95 1,5 4,27 3,39 -7,98 0,180 28,277 0,1 15,59 15,59 7,72 18,30 -16,64l3 7c26,25 21,-39 20,52l23 -81 69 33 7 4c-8,-51 2,-32 -38,-65l-60 -39c-2,-1 -7,-4 -11,-7 9,-101 -15,-180 81,-197 -19,-40 -32,-65 13,-130 35,-50 269,-253 329,-282l-109 1 46 -52c-214,121 -66,51 -211,173z"/>
   <path class="fil49" d="M6457 5360c-60,29 -294,232 -329,282 -45,65 -32,90 -13,130 32,-12 51,-22 73,-37 8,-4 34,-25 36,-26 35,-35 17,-2 26,-41 -16,-85 -52,-44 27,-118 78,-73 33,-23 86,-43 42,-16 8,-7 8,-7l9 -21c27,-27 44,-20 56,-25l67 -37c39,-22 9,3 42,-26 0,-5 -2,-17 -3,-14l-8 -19c-44,-31 -6,-8 -19,3 66,3 -5,24 70,14 4,-1 28,-8 32,-10 61,-24 65,-41 95,-82 104,12 -17,26 62,18 74,-9 48,-30 60,-74 -145,17 -273,58 -377,133z"/>
   <path class="fil49" d="M5999 5147c-36,71 -81,148 -69,235 27,90 2,40 -5,116 -5,57 8,45 12,84 146,-55 35,-292 205,-439 32,-61 23,-73 67,-111 -43,21 -73,49 -102,84 -36,-87 78,-153 144,-193 -91,14 -127,55 -180,90l3 -266c-9,80 -11,138 -10,219 1,103 -25,117 -65,181z"/>
   <path class="fil39" d="M5575 5591l-172 67 -66 61c-32,44 -8,37 -38,83 50,8 40,26 38,30 3,-1 9,-4 10,-1 2,3 9,-1 11,-2 34,-5 -11,6 30,-4 121,-30 -39,-46 158,-94 116,-29 144,-35 243,-89l27 -27c1,-7 6,-8 9,-12 -93,-9 -46,-40 -163,-30l-87 18z"/>
   <path class="fil33" d="M3967 4516c95,-22 91,39 75,107l-77 2 2 -109zm-1 -108l51 2c2,-4 8,4 11,6 5,52 -11,47 -64,60l2 -68zm-91 56c0,84 10,144 -24,196 132,0 237,22 278,-48 39,-73 -22,-103 -58,-132 39,-43 42,-26 44,-97 -141,-21 -119,-17 -258,-11 21,42 18,34 18,92z"/>
   <path class="fil46" d="M5833 3170c-2,-52 -9,-48 13,-88 99,9 59,70 -13,88zm-91 -28c0,72 8,144 -18,197l126 1c-16,-36 -19,-80 -16,-135 111,50 31,124 88,136l105 -2c-27,-44 -65,-118 -89,-167 30,-39 48,-46 45,-107 -151,-25 -115,-16 -259,-14 12,25 18,49 18,91z"/>
   <path class="fil46" d="M6728 3084c66,7 95,39 97,119 1,81 -28,102 -105,106l8 -225zm-116 251c142,22 314,25 307,-130 -7,-152 -160,-169 -308,-150 32,50 32,230 1,280z"/>
   <path class="fil1" d="M8599 10240c65,-120 -33,-402 -143,-354 -71,30 -44,155 -17,224 33,88 50,148 160,130z"/>
   <path class="fil1" d="M5120 10108c-99,90 -68,442 73,334 83,-63 74,-466 -73,-334z"/>
   <path class="fil1" d="M7185 10468c73,-118 12,-429 -113,-359 -59,32 -44,163 -29,228 21,92 38,146 142,131z"/>
   <path class="fil1" d="M3688 9802c-175,-13 -196,318 -128,357 120,70 210,-236 128,-357z"/>
   <path class="fil50" d="M3933 8899l-25 83 1039 -14c-186,-257 -797,145 -1014,-69z"/>
   <path class="fil51" d="M8435 5256c-40,-10 -63,-5 -66,-53 -15,15 -2,-1 -24,27l-48 75c-52,84 -158,213 -146,290 75,6 150,-118 187,-159l495 -556c-58,-11 -27,-12 -71,38l-281 327c-36,44 -75,92 -115,119 27,-49 46,-64 69,-108z"/>
   <path class="fil49" d="M6012 5531c2,28 -4,81 14,109 32,4 70,-55 79,-66 20,-25 54,-62 78,-92l30 -95 39 -146 -18 -20c-4,-12 -6,7 -8,-42 -137,54 -39,-77 -131,139 -18,41 -21,55 -32,99 -20,88 3,40 -51,114z"/>
   <path class="fil50" d="M5006 8957c107,25 407,24 525,19 84,-4 170,1 254,3 67,1 197,31 242,-24 -35,-48 -12,-25 -53,-22 -4,1 -62,15 -77,18 -49,9 -108,14 -158,12 -67,-3 -227,-33 -285,-52 -179,-32 -317,-68 -448,46z"/>
   <path class="fil33" d="M4894 4403c39,52 76,250 -30,221 -40,-11 -52,-64 -54,-114 -3,-88 8,-103 84,-107zm-59 -32c-210,61 -122,352 93,286 171,-53 108,-344 -93,-286z"/>
   <path class="fil44" d="M6142 5143c-170,147 -59,384 -205,439 -4,-39 -17,-27 -12,-84 7,-76 32,-26 5,-116l-14 0c-9,66 -4,22 -23,56 -12,22 -23,7 -30,59 8,-24 4,-2 -18,-14l9 72c-1,3 -2,8 -3,11 52,50 -15,49 71,54 -27,83 -30,30 3,104 31,-39 -29,-31 27,-104 25,29 35,40 30,91l9 -85c-4,-48 -10,-51 21,-95 54,-74 31,-26 51,-114 11,-44 14,-58 32,-99 92,-216 -6,-85 131,-139 2,49 4,30 8,42l18 20c18,-80 50,-136 75,-195 -43,5 -70,13 -103,37 -35,26 -35,42 -82,60z"/>
   <path class="fil8" d="M4389 8797l-18 -69c-16,10 -11,11 -45,19 -67,15 -83,-4 -106,-13 4,-96 38,-130 -43,-180 2,-4 4,-9 6,-12 27,-66 33,-186 6,-186 -8,71 -40,178 -55,240 -9,40 -50,196 -51,232 83,43 229,-9 306,-31z"/>
   <path class="fil1" d="M7955 9994c-3,83 40,314 80,370 227,-19 62,-428 -80,-370z"/>
   <path class="fil41" d="M8229 8022c-30,43 17,15 -57,26 -7,1 -65,1 -76,1 -51,-1 -90,0 -141,-5 19,41 28,25 32,58 8,64 -2,40 -35,58 -31,-86 -13,-225 -38,-270 -18,-32 -10,-21 -38,-39 -11,64 -17,137 6,196 15,39 22,20 27,66 2,22 -8,52 -8,89 80,-6 457,-50 328,-180z"/>
   <path class="fil52" d="M8811 4646l44 15c28,-32 68,-81 86,-121 -28,-42 -42,-41 -62,-74 -17,-53 6,-2 -17,-36 -25,-39 -74,-55 -95,-131 -27,31 -83,145 -76,193 8,58 91,101 120,154z"/>
   <path class="fil44" d="M5403 5088l27 38c12,-57 -18,-19 21,-40 37,46 34,45 76,79 44,37 39,23 56,75l170 51c-7,-24 -12,-32 -11,-52 2,-48 -29,-5 14,-35 -34,-27 -47,-46 -77,-71 -34,-28 -56,-30 -97,-55 -77,-47 -121,-89 -159,-161 -2,3 -4,8 -5,11l-7 82c2,22 7,45 6,50 -3,41 21,9 -14,28z"/>
   <path class="fil33" d="M4264 4449c4,5 13,-2 23,41 18,77 1,22 -7,40 -54,-29 -48,-8 -16,-81zm-135 211l93 0c-29,-53 -16,-40 -1,-105 86,3 122,32 87,105l142 0 -85 -219c-4,-14 12,-97 -100,-71 -63,14 -24,148 -136,290z"/>
   <path class="fil41" d="M7676 8059c-105,3 -307,15 -401,-7 19,101 17,142 122,143 71,1 58,-20 236,-13 10,-53 28,-90 43,-123z"/>
   <path class="fil40" d="M6542 5614c-25,17 -23,81 -27,97l-14 -26c-33,-61 -25,-53 -62,-67l-72 -14c-55,18 -36,5 -73,34 93,-12 142,17 156,88 30,65 0,-2 19,30 27,0 22,-6 62,-45 22,131 -11,23 38,137 -40,56 -64,91 -11,91 20,-34 -7,-37 22,-15l27 -32c28,47 27,91 6,172 26,-22 18,-1 39,-76 13,-46 15,-51 20,-106 30,23 -7,16 58,6l-26 -96 -64 -6c-1,54 14,47 11,112 -26,-20 -19,-13 -28,-51 -11,-43 8,-11 -17,-48 -11,54 14,56 -23,63l-22 -106c4,-1 10,-3 12,-3l27 3c31,-100 -85,-120 6,-120l0 -57c-36,13 -6,2 -27,15l-37 20z"/>
   <path class="fil53" d="M5662 5560l0 13c117,-10 70,21 163,30 -3,4 -8,5 -9,12l-27 27c67,12 73,52 96,130 -39,29 -50,17 -78,56l60 7 26 15 6 -109 39 63 3 -66c-7,133 -30,213 0,306 107,-102 29,-141 41,-333 5,-51 -5,-62 -30,-91 -56,73 4,65 -27,104 -33,-74 -30,-21 -3,-104 -86,-5 -19,-4 -71,-54l-40 -36c-40,35 -86,37 -149,30z"/>
   <path class="fil54" d="M3751 7565c0,81 9,143 -18,199l77 1c-34,-57 -22,-128 -22,-219 57,31 56,55 97,96 55,54 81,52 41,122l76 -1c-30,-54 -30,-231 1,-285l-74 -2c41,95 4,86 0,91l-59 -91 -138 0c12,25 19,50 19,89z"/>
   <path class="fil46" d="M3452 7565c0,74 10,147 -17,195l236 7 29 -111c-46,44 -54,81 -152,77l-6 -128c51,-5 58,8 87,26 -12,-160 -12,-17 -87,-81 14,-69 53,-54 112,-9l5 -69 -225 6c20,35 18,34 18,87z"/>
   <path class="fil46" d="M6547 3313c22,-87 -13,-211 38,-256l-99 -7c46,53 68,240 -5,257 -123,29 -66,-217 -40,-256l-140 1c55,81 -7,169 27,247 37,86 175,37 219,14z"/>
   <path class="fil55" d="M5810 5036c36,49 9,30 32,89 12,33 21,39 39,67 42,65 27,96 35,190l14 0c-12,-87 33,-164 69,-235 -59,-10 -29,-3 -49,-30 -13,-67 -55,-189 -106,-227 -38,-12 -23,-10 -54,-12 -19,0 -19,0 -40,8 13,34 55,101 77,126l-17 24z"/>
   <path class="fil46" d="M3208 7768l22 -90c-133,151 -261,-51 -151,-159 118,-18 71,24 136,64l-20 -106c-131,-15 -256,-14 -253,134 4,156 121,158 266,157z"/>
   <path class="fil54" d="M4305 7759l22 -77c-50,43 -114,89 -170,6 -64,-94 10,-221 99,-160l55 56 -19 -110c-140,-5 -276,-4 -251,164 18,122 135,152 264,121z"/>
   <path class="fil40" d="M8368 7846l-49 16c-4,1 -8,2 -13,3 -64,14 -140,7 -206,6l24 12c100,49 61,16 154,92l10 11 190 -3 47 -163 -157 26z"/>
   <path class="fil56" d="M8879 4466l247 169c215,108 53,-107 51,-111 -97,22 -81,46 -183,-31 -20,-15 -61,-47 -73,-64 -62,-87 38,-95 -79,-135 -79,-26 -75,5 -75,5 21,76 70,92 95,131 23,34 0,-17 17,36z"/>
   <path class="fil31" d="M7899 7763l14 59 187 49c66,1 142,8 206,-6 5,-1 9,-2 13,-3l49 -16 27 -53c-37,-16 -40,-20 -75,-33 -26,21 -48,18 -102,19 -92,0 -253,9 -319,-16z"/>
   <path class="fil46" d="M5335 3334l109 4c-21,-66 72,-249 103,-286l-96 -1c27,55 -6,123 -33,178 -26,-44 -58,-130 -34,-173l-134 -5c29,51 107,228 85,283z"/>
   <path class="fil28" d="M7955 8044c51,5 90,4 141,5 11,0 69,0 76,-1 74,-11 27,17 57,-26 -38,-102 -171,-130 -302,-153l28 175z"/>
   <path class="fil57" d="M5914 7275c-1,14 -1,68 -3,78 -15,64 5,27 -28,46l-7 33c-39,5 -72,-3 -94,15l-136 52 139 2c21,-38 -2,-6 15,-40 102,0 103,-40 338,-8 -11,-125 -27,-1 -55,-109l-8 -22c-21,-27 -24,41 -31,-76 -37,70 -76,83 -130,29z"/>
   <path class="fil46" d="M6015 3143c30,-31 32,-47 88,-57 13,81 16,199 -18,253l138 0c-38,-46 -28,-173 -21,-251l87 47 -12 -86 -246 2 -16 92z"/>
   <path class="fil45" d="M5901 6918c-10,66 -12,67 13,124 -49,3 -72,26 -107,44l3 14 21 72c16,-28 8,-9 17,-34 8,-22 10,-52 15,-70 56,43 44,-7 35,163 -4,60 -5,109 -15,168 33,-19 13,18 28,-46 2,-10 2,-64 3,-78l11 -159 -22 -51c71,-13 66,-24 102,26 -7,-50 -38,-114 -30,-159 12,-64 21,16 30,-172 -4,-4 -9,-21 -11,-14l-18 12 9 53c-74,-9 -66,-18 -86,-87l2 194z"/>
   <path class="fil33" d="M2948 4460c50,-35 6,-53 94,-49 2,96 14,186 -24,249l138 0c-37,-64 -25,-152 -23,-249 68,-5 59,20 94,51l-20 -91 -234 -1 -25 90z"/>
   <path class="fil48" d="M6083 7344c28,108 44,-16 55,109l117 -4c-18,-52 -28,-39 -29,-67 28,0 84,11 84,11 42,1 46,-6 86,-5 72,2 173,20 186,-64 -116,-14 -149,15 -265,7 -118,-9 -134,10 -234,13z"/>
   <path class="fil58" d="M8538 4939c9,35 1,24 25,47 29,28 21,22 63,21l149 -200c1,-1 4,-5 6,-7 -54,-22 -68,-37 -86,-97 -51,36 -143,197 -157,236z"/>
   <path class="fil45" d="M6142 5143c47,-18 47,-34 82,-60 33,-24 60,-32 103,-37l51 -35c42,9 3,-4 46,13 -17,-67 -18,-51 -68,-83l34 -1c-39,-29 -82,-23 -139,-17 -66,40 -180,106 -144,193 29,-35 59,-63 102,-84 -44,38 -35,50 -67,111z"/>
   <path class="fil28" d="M7275 8052c94,22 296,10 401,7l-19 -68c-98,-30 -75,-12 -96,11l-50 -44c-70,22 -29,10 -73,56 -16,-86 7,-7 -26,-42 -69,8 -100,-4 -163,-19l26 99z"/>
   <path class="fil59" d="M5528 4738c31,15 -3,1 37,23 27,15 26,11 50,26 33,20 49,48 76,77 46,51 33,32 60,90l59 82 17 -24c-22,-25 -64,-92 -77,-126 21,-8 21,-8 40,-8 31,2 16,0 54,12 -25,-66 -59,-105 -121,-150 -25,-18 -62,-37 -95,-43 -77,-14 -74,-2 -100,41z"/>
   <path class="fil37" d="M6558 5939l-5 146 -19 -82 -38 76c16,47 13,34 40,48l44 39c30,-55 -24,-18 49,-39 28,-11 9,17 40,-34 13,-21 21,-46 27,-63 15,-45 29,-94 34,-142 -65,10 -28,17 -58,-6 -5,55 -7,60 -20,106 -21,75 -13,54 -39,76 21,-81 22,-125 -6,-172l-27 32c-29,-22 -2,-19 -22,15z"/>
   <path class="fil52" d="M8369 5203c3,48 26,43 66,53 65,-73 132,-166 191,-249 -42,1 -34,7 -63,-21 -24,-23 -16,-12 -25,-47 -34,30 -152,217 -169,264z"/>
   <path class="fil37" d="M6213 5387l-30 95c145,-122 -3,-52 211,-173 58,-51 53,7 64,-83 19,21 -23,41 74,2 136,-56 253,-40 298,-62 -116,-41 -259,-4 -367,38 -138,53 -170,99 -250,183z"/>
   <path class="fil33" d="M4577 4464c0,95 13,117 -23,164 -46,-3 -39,14 -65,-54l-51 62c325,121 182,-147 246,-259l-129 -5c27,42 22,26 22,92z"/>
   <path class="fil60" d="M5982 5711c-12,192 66,231 -41,333 -30,-93 -7,-173 0,-306l-3 66 -39 -63 -6 109c13,130 12,220 7,354 3,-3 8,-13 10,-10 2,3 8,-7 10,-10 24,-30 -9,13 15,-19l86 -100c34,-34 23,8 16,-64 0,0 -15,-58 -15,-59 -28,-97 -35,-179 -28,-277 1,-12 -2,-34 -3,-39l-9 85z"/>
   <path class="fil23" d="M6446 6008l-37 -113c35,22 49,18 53,69 2,-27 -3,-35 11,-53 30,-37 -1,-28 36,-9 30,15 21,80 25,101l19 82 5 -146c-53,0 -29,-35 11,-91 -49,-114 -16,-6 -38,-137 -40,39 -35,45 -62,45 -19,-32 11,35 -19,-30 -29,29 23,-12 -50,-10 -2,63 27,109 16,155 -15,63 -34,93 30,137z"/>
   <path class="fil40" d="M5878 6282c-41,55 -36,35 -53,111 -24,110 -80,32 -48,245 9,56 27,43 57,31 20,-67 18,-121 19,-173 0,-133 -3,-59 30,-155l22 104c0,-5 1,-30 2,-33 8,-28 6,-21 16,-36l-16 -28c33,-40 -54,-33 67,-29l-7 -56c-39,28 -22,-51 -30,26l-59 -7z"/>
   <path class="fil40" d="M6136 6076c31,117 -77,76 -32,192 25,-33 15,-30 22,-83l43 39c-6,15 -17,14 -40,49 19,11 21,16 49,0 -23,34 6,17 -51,24 4,4 11,3 13,10 9,33 23,-1 31,31l-60 31 38 23c-26,48 -26,53 -3,94 47,40 -18,0 50,-30 42,20 22,19 62,55l-2 -98c-33,-11 -6,2 -33,-13l-30 -32c-17,-91 8,-84 32,-110l6 20c-7,-27 -23,-52 -25,-61 0,-2 -2,-7 -2,-8 0,-2 0,-7 0,-8l12 -24c-68,-49 -23,-50 -73,-97l-7 -4z"/>
   <path class="fil46" d="M5571 3142c0,73 7,140 -18,198l126 -1c-29,-56 -29,-230 0,-287l-128 -1c13,27 20,47 20,91z"/>
   <path class="fil61" d="M5969 4700c-7,111 4,374 -19,417 20,27 -10,20 49,30 6,-71 29,-160 29,-242 -1,-70 3,-154 7,-248 -67,22 -23,-6 -66,43z"/>
   <path class="fil1" d="M3281 7565c0,86 10,143 -17,198l123 2c-31,-78 -16,-205 -5,-290l-119 1c13,27 18,47 18,89z"/>
   <path class="fil62" d="M5982 4668l-13 32c43,-49 -1,-21 66,-43 -4,94 -8,178 -7,248 0,82 -23,171 -29,242 40,-64 66,-78 65,-181 -1,-81 1,-139 10,-219 0,-88 21,-190 -29,-237l-24 145 -39 13z"/>
   <path class="fil37" d="M6454 4952c89,60 46,-12 92,128 3,12 10,24 14,36l-59 11c1,1 15,57 96,-3 23,-16 55,-54 57,-98 5,-127 -125,-88 -200,-74z"/>
   <path class="fil1" d="M8930 9947c12,62 25,136 63,185 128,-14 125,-153 -3,-219l-60 34z"/>
   <path class="fil1" d="M4894 4403c-76,4 -87,19 -84,107 2,50 14,103 54,114 106,29 69,-169 30,-221z"/>
   <path class="fil63" d="M5710 6562c-50,-20 -14,27 -46,-30 -32,22 21,68 -57,-52l-4 67c-28,-16 36,-18 -26,-3 -57,13 -1,-8 -27,15 28,-75 5,10 30,-35 22,-39 34,36 10,-63 -62,34 -69,37 -79,109 61,74 69,86 185,67l14 -75z"/>
   <path class="fil62" d="M5116 5385c26,48 34,60 97,74l148 37 21 -85c0,13 -1,29 5,42 24,61 1,17 29,42 -43,-69 -24,-54 -20,-135 -52,31 4,-5 -45,4 -59,10 -60,53 -235,21z"/>
   <path class="fil64" d="M5213 5459c41,60 80,64 168,78 36,6 70,12 105,18 69,12 61,3 89,36l87 -18 0 -13 -122 -30 -26 -97 -34 82 -64 -20c-28,-25 -5,19 -29,-42 -6,-13 -5,-29 -5,-42l-21 85 -148 -37z"/>
   <path class="fil65" d="M6533 6416c-51,42 -68,114 -30,157 17,19 6,8 24,13l78 5c44,-78 32,-89 30,-186l-25 -10 -10 -49c-26,29 -7,13 -38,34l26 22c16,22 21,7 8,81l-34 31c-26,-39 -9,-8 -18,-57 -1,-4 -1,-10 -2,-13l-9 -28z"/>
   <path class="fil66" d="M5688 6364c93,-171 -67,-101 36,-149 -51,-81 -21,-54 -108,-79l-13 168c25,16 21,17 41,34 45,35 1,6 44,26z"/>
   <path class="fil2" d="M6720 3309c77,-4 106,-25 105,-106 -2,-80 -31,-112 -97,-119l-8 225z"/>
   <path class="fil67" d="M6533 6416l9 28c1,3 1,9 2,13 9,49 -8,18 18,57l34 -31c13,-74 8,-59 -8,-81l-26 -22c31,-21 12,-5 38,-34 7,-6 9,-8 28,-21 3,-3 19,-8 22,-15 2,-5 7,-4 11,-7l-56 1 24 -177c-73,21 -19,-16 -49,39l-44 -39c69,119 21,187 -3,289z"/>
   <path class="fil31" d="M6704 5792l10 -124c-50,13 -29,5 -58,43 -26,-67 -41,7 -50,-75 -91,0 25,20 -6,120l-27 -3c-2,0 -8,2 -12,3l22 106c37,-7 12,-9 23,-63 25,37 6,5 17,48 9,38 2,31 28,51 3,-65 -12,-58 -11,-112l64 6z"/>
   <path class="fil68" d="M6424 5024c1,56 28,93 77,103l59 -11c-4,-12 -11,-24 -14,-36 -46,-140 -3,-68 -92,-128l-64 -12 -34 1c50,32 51,16 68,83z"/>
   <path class="fil46" d="M11081 6940c-50,-30 -123,-21 -203,-18 52,148 231,139 203,18z"/>
   <path class="fil52" d="M8920 4388c30,40 37,54 88,80 38,-40 44,-45 70,-91 -50,-43 -59,-59 -101,-107 -29,40 -51,70 -57,118z"/>
   <path class="fil59" d="M5325 4899l78 189c35,-19 11,13 14,-28 1,-5 -4,-28 -6,-50l7 -82c1,-3 3,-8 5,-11l4 -130c-5,-2 -20,-8 -24,-8 -64,-1 38,-26 -18,2 -50,25 2,118 -60,118z"/>
   <path class="fil69" d="M5905 6665l-6 59c20,69 12,78 86,87l-9 -53 -22 16c19,-71 48,-35 79,-157l-84 -11 -44 59z"/>
   <path class="fil28" d="M8478 7983l-190 3 10 66c35,20 17,8 69,1l22 85 67 -2c-85,-46 -37,3 -64,-60l80 -27 6 -66z"/>
   <path class="fil6" d="M6226 10339l-167 1c-6,8 -13,15 -23,30 -11,20 3,-8 -10,21 -12,26 -6,15 -12,38l171 1 41 -91z"/>
   <path class="fil13" d="M5925 7116l34 143c25,-24 55,-53 84,-89 -9,-46 -16,-53 -38,-79 -36,-50 -31,-39 -102,-26l22 51z"/>
   <path class="fil69" d="M5900 6204l-22 78 59 7c8,-77 -9,2 30,-26 31,-34 54,-130 57,-191l-3 -7 -86 100c-24,32 9,-11 -15,19 -2,3 -8,13 -10,10 -2,-3 -7,7 -10,10z"/>
   <path class="fil66" d="M5596 6450l-6 11c24,99 12,24 -10,63 -25,45 -2,-40 -30,35 26,-23 -30,-2 27,-15 62,-15 -2,-13 26,3l4 -67c78,120 25,74 57,52 32,57 -4,10 46,30 -1,-82 -19,-77 -3,-137 -23,-11 -43,-27 -59,-45 -5,5 -10,10 -14,15l-27 63c-42,32 22,57 -11,-8z"/>
   <path class="fil41" d="M6446 6008c14,65 -5,46 50,71l38 -76c-4,-21 5,-86 -25,-101 -37,-19 -6,-28 -36,9 -14,18 -9,26 -11,53 -4,-51 -18,-47 -53,-69l37 113z"/>
   <path class="fil33" d="M1220 4111c-7,-50 -43,-95 -72,-132 -40,-51 -70,-59 -114,-16 8,13 -14,15 30,54l156 94z"/>
   <path class="fil66" d="M5740 6039c3,1 7,0 8,3l40 22c16,-62 40,-116 4,-184 -70,27 -31,-2 -55,51 -26,55 -21,6 -43,99 19,16 33,7 46,9z"/>
   <path class="fil61" d="M5923 6376l3 113c36,-11 27,-8 62,-29l21 -13c53,-31 -25,19 13,-6l-48 -122c-121,-4 -34,-11 -67,29l16 28z"/>
   <path class="fil33" d="M4205 9767c30,-35 24,-20 45,-77 -146,45 -154,-91 -213,69 127,-40 48,11 168,8z"/>
   <path class="fil70" d="M8779 1992c43,14 84,37 121,55l-19 -180c-42,22 -88,88 -102,125z"/>
   <path class="fil46" d="M7549 10199c95,-33 121,-166 -10,-149 -21,55 -12,102 10,149z"/>
   <path class="fil71" d="M5782 7447c22,-18 55,-10 94,-15 -4,-37 -5,-54 -18,-90 -10,-26 -12,-20 -22,-56 -93,-18 -20,-11 -49,21l-5 140z"/>
   <path class="fil72" d="M5468 6398c13,36 -16,12 27,35 19,-3 23,12 47,-8 13,-50 1,-22 38,-60l9 -186c-81,95 -49,165 -73,203 -29,46 -2,41 -48,16z"/>
   <path class="fil33" d="M7038 9976c27,-2 166,-40 141,-141 -59,-5 -80,19 -141,141z"/>
   <path class="fil28" d="M8584 8077l107 -23c-21,-38 -46,-90 -62,-141 -44,52 -51,102 -45,164z"/>
   <polygon class="fil46" points="6496,1756 6628,1792 6566,1625 "/>
   <path class="fil46" d="M8898 9758c0,6 -58,30 19,130 40,-33 75,-49 54,-127l-73 -3z"/>
   <path class="fil71" d="M5818 7024l-11 62c35,-18 58,-41 107,-44 -25,-57 -23,-58 -13,-124 -66,19 -60,34 -83,106z"/>
   <path class="fil46" d="M10781 3844c61,-8 144,-18 195,-54l-158 -37 -37 91z"/>
   <path class="fil46" d="M3965 4625l77 -2c16,-68 20,-129 -75,-107l-2 109z"/>
   <path class="fil39" d="M5325 4899c62,0 10,-93 60,-118 56,-28 -46,-3 18,-2 4,0 19,6 24,8l-18 -47c-110,-3 -108,69 -84,159z"/>
   <path class="fil56" d="M8811 4646c-17,-11 -42,-17 -46,-19 -37,48 -71,67 -16,125 44,-14 44,-28 75,-58 -5,-18 -9,-36 -13,-48z"/>
   <path class="fil41" d="M7092 8197c46,-14 46,-17 32,-68 -11,-39 -20,-61 -47,-90 -46,43 -33,109 15,158z"/>
   <path class="fil27" d="M6256 6413l23 -31c-26,-32 -15,3 -32,-55l-3 -29c-11,-34 20,11 -13,-20l-6 -20c-24,26 -49,19 -32,110l30 32c27,15 0,2 33,13z"/>
   <path class="fil72" d="M5615 5952l-1 26 -42 72 56 3 15 -23c1,-2 4,-8 5,-11 47,-101 -7,5 18,-42 19,-35 25,-37 45,-77 -84,26 -18,23 -96,52z"/>
   <path class="fil45" d="M5430 5126c45,53 79,81 153,114 -17,-52 -12,-38 -56,-75 -42,-34 -39,-33 -76,-79 -39,21 -9,-17 -21,40z"/>
   <path class="fil73" d="M6661 6303c-4,3 -9,2 -11,7 -3,7 -19,12 -22,15 -19,13 -21,15 -28,21l10 49 25 10c60,-38 42,-41 70,-113l-44 11z"/>
   <path class="fil41" d="M7702 8113l4 84c76,-13 64,-60 50,-142l-54 58z"/>
   <path class="fil70" d="M9288 9828l88 6c-16,-35 -19,-39 -43,-71 -20,-26 -32,-38 -51,-56l6 121z"/>
   <path class="fil71" d="M5713 6147c70,3 21,5 43,-17 -46,-32 -23,-66 -108,-53 11,61 5,50 65,70z"/>
   <path class="fil49" d="M5982 4668l39 -13 24 -145c-36,23 -27,6 -46,61 -10,29 -14,62 -17,97z"/>
   <path class="fil74" d="M5572 6050l42 -72c-90,17 -87,5 -107,89l65 -17z"/>
   <path class="fil70" d="M3358 4490c24,-8 43,-6 55,-31 34,-69 -16,-54 -30,-60 -43,28 -31,20 -25,91z"/>
   <path class="fil2" d="M5833 3170c72,-18 112,-79 13,-88 -22,40 -15,36 -13,88z"/>
   <path class="fil31" d="M6439 5618c37,14 29,6 62,67l14 26c4,-16 2,-80 27,-97l-11 -24c-98,68 -45,7 -92,28z"/>
   <path class="fil70" d="M3964 4476c53,-13 69,-8 64,-60 -3,-2 -9,-10 -11,-6l-51 -2 -2 68z"/>
   <path class="fil75" d="M3672 4530c8,-18 26,38 8,-41 -11,-44 -20,-35 -24,-41 -30,74 -39,53 16,82z"/>
   <path class="fil75" d="M4280 4530c8,-18 25,37 7,-40 -10,-43 -19,-36 -23,-41 -32,73 -38,52 16,81z"/>
   <polygon class="fil76" points="4601,7611 4657,7640 4640,7556 "/>
  </g>
 </g>
</svg>
